<svg width="18" height="18" viewBox="0 0 18 18" fill="none" xmlns="http://www.w3.org/2000/svg">
<path fill-rule="evenodd" clip-rule="evenodd" d="M16.9667 12.2238C17.2867 12.1555 17.5296 11.8979 17.6234 11.5844C17.8684 10.7658 18 9.89827 18 9C18 4.02944 13.9706 0 9 0C4.02944 0 0 4.02944 0 9C0 13.9706 4.02944 18 9 18C9.24996 18 9.49753 17.9898 9.74234 17.9698C10.6915 17.8923 10.8892 16.5812 10.4885 15.7172C10.2552 15.2142 10.125 14.6535 10.125 14.0625C10.125 11.8879 11.9995 9.43732 14.0625 10.125C14.7528 10.3551 15.0666 10.8676 15.352 11.3337C15.7085 11.9158 16.0208 12.4258 16.9667 12.2238ZM10.125 3.9375C10.125 3.00552 10.8805 2.25 11.8125 2.25C12.7445 2.25 13.5 3.00552 13.5 3.9375C13.5 4.86948 12.7445 5.625 11.8125 5.625C10.8805 5.625 10.125 4.86948 10.125 3.9375ZM6.1875 2.25C5.25552 2.25 4.5 3.00552 4.5 3.9375C4.5 4.86948 5.25552 5.625 6.1875 5.625C7.11948 5.625 7.875 4.86948 7.875 3.9375C7.875 3.00552 7.11948 2.25 6.1875 2.25ZM1.125 8.4375C1.125 7.50552 1.88052 6.75 2.8125 6.75C3.74448 6.75 4.5 7.50552 4.5 8.4375C4.5 9.36948 3.74448 10.125 2.8125 10.125C1.88052 10.125 1.125 9.36948 1.125 8.4375ZM4.5 12.375C3.87868 12.375 3.375 12.8787 3.375 13.5C3.375 14.1213 3.87868 14.625 4.5 14.625C5.12132 14.625 5.625 14.1213 5.625 13.5C5.625 12.8787 5.12132 12.375 4.5 12.375Z" fill="white"/>
</svg>
