<svg width="18" height="18" viewBox="0 0 18 18" fill="none" xmlns="http://www.w3.org/2000/svg">
<path d="M11.6489 0.866369C12.0361 0.635613 12.5299 0.898202 12.5551 1.34822L12.8065 5.83676C12.8155 5.99777 12.889 6.14838 13.0103 6.25462L16.3926 9.21612C16.7317 9.51304 16.6345 10.0639 16.2143 10.2269L12.0232 11.853C11.8728 11.9113 11.7523 12.0277 11.6887 12.176L9.91735 16.3078C9.73975 16.7221 9.18586 16.7999 8.90096 16.4507L6.0593 12.9671C5.95736 12.8422 5.80941 12.7635 5.6488 12.7489L1.17178 12.341C0.722907 12.3001 0.477713 11.7974 0.72184 11.4185L3.15677 7.63944C3.24412 7.50388 3.27321 7.33886 3.2375 7.18159L2.24193 2.79765C2.14211 2.35811 2.54446 1.96957 2.98024 2.08467L7.32677 3.23263C7.48269 3.27381 7.64863 3.25049 7.78716 3.16793L11.6489 0.866369Z" fill="white"/>
<path d="M12.4441 12.4442C12.8346 12.0536 13.4678 12.0536 13.8583 12.4442L17.7157 16.3015C18.1062 16.6921 18.1062 17.3252 17.7157 17.7158C17.3252 18.1063 16.692 18.1063 16.3015 17.7158L12.4441 13.8584C12.0536 13.4678 12.0536 12.8347 12.4441 12.4442Z" fill="white"/>
</svg>
