<svg width="14" height="11" viewBox="0 0 14 11" fill="none" xmlns="http://www.w3.org/2000/svg">
<path d="M7.00014 2.71429C5.57998 2.71429 4.42871 3.86555 4.42871 5.28572C4.42871 6.70588 5.57998 7.85714 7.00014 7.85714C8.4203 7.85714 9.57157 6.70588 9.57157 5.28572C9.57157 3.86555 8.4203 2.71429 7.00014 2.71429Z" fill="white"/>
<path fill-rule="evenodd" clip-rule="evenodd" d="M13.9119 4.87535C12.4818 1.69741 9.79075 1.19209e-07 7 0C4.20925 -1.78814e-07 1.51815 1.69741 0.0880784 4.87535C-0.0293595 5.13632 -0.0293595 5.43511 0.0880784 5.69608C1.51815 8.87402 4.20925 10.5714 7 10.5714C9.79075 10.5714 12.4818 8.87401 13.9119 5.69608C14.0294 5.4351 14.0294 5.13632 13.9119 4.87535ZM7 8.57143C5.18342 8.57143 3.27797 7.53709 2.11033 5.28572C3.27797 3.03434 5.18342 2 7 2C8.81657 2 10.722 3.03434 11.8897 5.28571C10.722 7.53708 8.81657 8.57143 7 8.57143Z" fill="white"/>
</svg>
