<svg width="22" height="23" viewBox="0 0 22 23" fill="none" xmlns="http://www.w3.org/2000/svg">
<path d="M21.5 6.07775V17C21.5 20.0376 19.0376 22.5 16 22.5H6C2.96243 22.5 0.5 20.0376 0.5 17V6.07775C0.5 4.37795 1.87795 3 3.57775 3H4.65371C5.67127 3 6.58632 2.38048 6.96424 1.4357C7.19029 0.870568 7.73763 0.5 8.34629 0.5H13.6537C14.2624 0.5 14.8097 0.870568 15.0358 1.4357C15.4137 2.38048 16.3287 3 17.3463 3H18.4223C20.122 3 21.5 4.37795 21.5 6.07775Z" stroke="white"/>
<circle cx="11" cy="12" r="4.5" stroke="white"/>
<circle cx="17.5" cy="6.5" r="1.5" fill="white"/>
</svg>
