<svg width="38" height="42" viewBox="0 0 38 42" fill="none" xmlns="http://www.w3.org/2000/svg">
<path fill-rule="evenodd" clip-rule="evenodd" d="M15 0C13.8954 0 13 0.895431 13 2V3H5C3.89543 3 3 3.89543 3 5V24C3 25.1046 3.89543 26 5 26H33C34.1046 26 35 25.1046 35 24V5C35 3.89543 34.1046 3 33 3H25V2C25 0.89543 24.1046 0 23 0H15ZM25 5V6C25 7.10457 24.1046 8 23 8H15C13.8954 8 13 7.10457 13 6V5H5V24H33V5H25ZM15 2H23V6H15V2Z" fill="#647499"/>
<path d="M7.15199 35.3622H5.37642C5.35275 35.1799 5.30421 35.0154 5.23082 34.8686C5.15743 34.7218 5.06037 34.5964 4.93963 34.4922C4.81889 34.388 4.67566 34.3087 4.50994 34.2543C4.34659 34.1974 4.16548 34.169 3.96662 34.169C3.61387 34.169 3.30966 34.2554 3.05398 34.4283C2.80066 34.6011 2.60535 34.8509 2.46804 35.1776C2.3331 35.5043 2.26562 35.8996 2.26562 36.3636C2.26562 36.8466 2.33428 37.2514 2.47159 37.5781C2.61127 37.9025 2.80658 38.1475 3.05753 38.3132C3.31084 38.4766 3.61032 38.5582 3.95597 38.5582C4.15009 38.5582 4.32647 38.5334 4.48509 38.4837C4.64607 38.4339 4.78693 38.3617 4.90767 38.267C5.03078 38.17 5.13139 38.0528 5.20952 37.9155C5.29001 37.7758 5.34564 37.6184 5.37642 37.4432L7.15199 37.4538C7.12121 37.7758 7.0277 38.093 6.87145 38.4055C6.71757 38.718 6.50568 39.0033 6.2358 39.2614C5.96591 39.517 5.63684 39.7206 5.24858 39.8722C4.86269 40.0237 4.41998 40.0994 3.92045 40.0994C3.26231 40.0994 2.67282 39.955 2.15199 39.6662C1.63352 39.375 1.22396 38.9512 0.923295 38.3949C0.622633 37.8385 0.472301 37.1615 0.472301 36.3636C0.472301 35.5634 0.625 34.8852 0.930398 34.3288C1.2358 33.7725 1.64891 33.3499 2.16974 33.0611C2.69058 32.7723 3.27415 32.6278 3.92045 32.6278C4.3608 32.6278 4.76799 32.6894 5.14205 32.8125C5.5161 32.9332 5.84517 33.1108 6.12926 33.3452C6.41335 33.5772 6.64418 33.8625 6.82173 34.201C6.99929 34.5395 7.10938 34.9266 7.15199 35.3622ZM9.69549 40.0923C9.34748 40.0923 9.03853 40.0343 8.76864 39.9183C8.50112 39.8 8.28924 39.6224 8.13299 39.3857C7.97911 39.1465 7.90217 38.8471 7.90217 38.4872C7.90217 38.1842 7.95543 37.9285 8.06197 37.7202C8.1685 37.5118 8.31528 37.3426 8.50231 37.2124C8.68933 37.0821 8.90477 36.9839 9.14862 36.9176C9.39246 36.849 9.65288 36.8028 9.92987 36.7791C10.24 36.7507 10.4898 36.7211 10.6792 36.6903C10.8685 36.6572 11.0059 36.611 11.0911 36.5518C11.1787 36.4903 11.2225 36.4039 11.2225 36.2926V36.2749C11.2225 36.0926 11.1597 35.9517 11.0343 35.8523C10.9088 35.7528 10.7395 35.7031 10.5265 35.7031C10.2968 35.7031 10.1122 35.7528 9.97248 35.8523C9.8328 35.9517 9.74402 36.089 9.70614 36.2642L8.10458 36.2074C8.15193 35.8759 8.27385 35.58 8.47035 35.3196C8.66921 35.0568 8.94147 34.8509 9.28711 34.7017C9.63512 34.5502 10.053 34.4744 10.5407 34.4744C10.8887 34.4744 11.2095 34.5159 11.503 34.5987C11.7966 34.6792 12.0523 34.7976 12.2701 34.9538C12.4879 35.1077 12.656 35.2971 12.7743 35.522C12.8951 35.7469 12.9554 36.0038 12.9554 36.2926V40H11.3219V39.2401H11.2793C11.1822 39.4247 11.0579 39.581 10.9064 39.7088C10.7573 39.8366 10.5809 39.9325 10.3773 39.9964C10.1761 40.0604 9.9488 40.0923 9.69549 40.0923ZM10.2317 38.956C10.4187 38.956 10.5868 38.9181 10.736 38.8423C10.8875 38.7666 11.0082 38.6624 11.0982 38.5298C11.1882 38.3949 11.2331 38.2386 11.2331 38.0611V37.5426C11.1834 37.5687 11.123 37.5923 11.052 37.6136C10.9834 37.6349 10.9076 37.6551 10.8248 37.674C10.7419 37.6929 10.6567 37.7095 10.5691 37.7237C10.4815 37.7379 10.3974 37.7509 10.3169 37.7628C10.1536 37.7888 10.0139 37.8291 9.8979 37.8835C9.78427 37.938 9.69667 38.009 9.63512 38.0966C9.57594 38.1818 9.54634 38.2836 9.54634 38.402C9.54634 38.5819 9.61026 38.7192 9.7381 38.8139C9.86831 38.9086 10.0328 38.956 10.2317 38.956ZM15.7537 36.8892V40H14.0172V34.5455H15.6685V35.5469H15.7289C15.8496 35.2131 16.0556 34.9515 16.3468 34.7621C16.638 34.5703 16.9848 34.4744 17.3873 34.4744C17.7708 34.4744 18.1034 34.5608 18.3851 34.7337C18.6692 34.9041 18.8894 35.1432 19.0456 35.451C19.2042 35.7564 19.2824 36.1139 19.28 36.5234V40H17.5435V36.8643C17.5459 36.5613 17.4689 36.3246 17.3127 36.1541C17.1588 35.9837 16.9445 35.8984 16.6699 35.8984C16.4876 35.8984 16.3266 35.9387 16.187 36.0192C16.0497 36.0973 15.9431 36.2098 15.8674 36.3565C15.794 36.5033 15.7561 36.6809 15.7537 36.8892ZM25.451 34.5455L23.5795 40H21.5909L19.723 34.5455H21.5518L22.5568 38.3026H22.6136L23.6222 34.5455H25.451ZM27.508 40.0923C27.16 40.0923 26.851 40.0343 26.5811 39.9183C26.3136 39.8 26.1017 39.6224 25.9455 39.3857C25.7916 39.1465 25.7147 38.8471 25.7147 38.4872C25.7147 38.1842 25.7679 37.9285 25.8745 37.7202C25.981 37.5118 26.1278 37.3426 26.3148 37.2124C26.5018 37.0821 26.7173 36.9839 26.9611 36.9176C27.205 36.849 27.4654 36.8028 27.7424 36.7791C28.0525 36.7507 28.3023 36.7211 28.4917 36.6903C28.681 36.6572 28.8184 36.611 28.9036 36.5518C28.9912 36.4903 29.035 36.4039 29.035 36.2926V36.2749C29.035 36.0926 28.9722 35.9517 28.8468 35.8523C28.7213 35.7528 28.552 35.7031 28.339 35.7031C28.1093 35.7031 27.9247 35.7528 27.785 35.8523C27.6453 35.9517 27.5565 36.089 27.5186 36.2642L25.9171 36.2074C25.9644 35.8759 26.0864 35.58 26.2828 35.3196C26.4817 35.0568 26.754 34.8509 27.0996 34.7017C27.4476 34.5502 27.8655 34.4744 28.3532 34.4744C28.7012 34.4744 29.022 34.5159 29.3155 34.5987C29.6091 34.6792 29.8648 34.7976 30.0826 34.9538C30.3004 35.1077 30.4685 35.2971 30.5868 35.522C30.7076 35.7469 30.7679 36.0038 30.7679 36.2926V40H29.1344V39.2401H29.0918C28.9947 39.4247 28.8704 39.581 28.7189 39.7088C28.5698 39.8366 28.3934 39.9325 28.1898 39.9964C27.9886 40.0604 27.7613 40.0923 27.508 40.0923ZM28.0442 38.956C28.2312 38.956 28.3993 38.9181 28.5485 38.8423C28.7 38.7666 28.8207 38.6624 28.9107 38.5298C29.0007 38.3949 29.0456 38.2386 29.0456 38.0611V37.5426C28.9959 37.5687 28.9355 37.5923 28.8645 37.6136C28.7959 37.6349 28.7201 37.6551 28.6373 37.674C28.5544 37.6929 28.4692 37.7095 28.3816 37.7237C28.294 37.7379 28.2099 37.7509 28.1294 37.7628C27.9661 37.7888 27.8264 37.8291 27.7104 37.8835C27.5968 37.938 27.5092 38.009 27.4476 38.0966C27.3884 38.1818 27.3588 38.2836 27.3588 38.402C27.3588 38.5819 27.4228 38.7192 27.5506 38.8139C27.6808 38.9086 27.8453 38.956 28.0442 38.956ZM36.5918 36.2109L34.9973 36.2536C34.9808 36.1399 34.9358 36.0393 34.8624 35.9517C34.789 35.8617 34.6931 35.7919 34.5748 35.7422C34.4587 35.6901 34.3238 35.6641 34.1699 35.6641C33.9687 35.6641 33.7971 35.7043 33.655 35.7848C33.5153 35.8653 33.4467 35.9742 33.449 36.1115C33.4467 36.218 33.4893 36.3104 33.5769 36.3885C33.6668 36.4666 33.8266 36.5294 34.0563 36.5767L35.1074 36.7756C35.6519 36.8797 36.0568 37.0526 36.3219 37.294C36.5894 37.5355 36.7244 37.8551 36.7267 38.2528C36.7244 38.6269 36.6131 38.9524 36.3929 39.2294C36.1751 39.5064 35.8768 39.7218 35.498 39.8757C35.1193 40.0272 34.686 40.103 34.1983 40.103C33.4194 40.103 32.8051 39.9432 32.3553 39.6236C31.9078 39.3016 31.6522 38.8707 31.5882 38.331L33.3034 38.2884C33.3413 38.4872 33.4396 38.6387 33.5982 38.7429C33.7568 38.8471 33.9592 38.8991 34.2054 38.8991C34.428 38.8991 34.6091 38.8577 34.7488 38.7749C34.8884 38.692 34.9595 38.5819 34.9618 38.4446C34.9595 38.3215 34.905 38.2232 34.7985 38.1499C34.6919 38.0741 34.525 38.0149 34.2978 37.9723L33.3461 37.7912C32.7992 37.6918 32.392 37.5083 32.1245 37.2408C31.8569 36.9709 31.7244 36.6276 31.7267 36.2109C31.7244 35.8464 31.8214 35.535 32.0179 35.277C32.2144 35.0166 32.4938 34.8177 32.856 34.6804C33.2182 34.5431 33.6455 34.4744 34.138 34.4744C34.8766 34.4744 35.459 34.6295 35.8851 34.9396C36.3113 35.2474 36.5468 35.6712 36.5918 36.2109Z" fill="#647499"/>
</svg>
