<svg width="37" height="41" viewBox="0 0 37 41" fill="none" xmlns="http://www.w3.org/2000/svg">
<path fill-rule="evenodd" clip-rule="evenodd" d="M14.9996 0C13.8951 0 12.9996 0.895431 12.9996 2V3H4.99962C3.89505 3 2.99962 3.89543 2.99962 5V24C2.99962 25.1046 3.89505 26 4.99962 26H32.9996C34.1042 26 34.9996 25.1046 34.9996 24V5C34.9996 3.89543 34.1042 3 32.9996 3H24.9996V2C24.9996 0.89543 24.1042 0 22.9996 0H14.9996ZM24.9996 5V6C24.9996 7.10457 24.1042 8 22.9996 8H14.9996C13.8951 8 12.9996 7.10457 12.9996 6V5H4.99962V24H32.9996V5H24.9996ZM14.9996 2H22.9996V6H14.9996V2Z" fill="#647499"/>
<path d="M7.15161 35.3622H5.37604C5.35237 35.1799 5.30384 35.0154 5.23045 34.8686C5.15706 34.7218 5.05999 34.5964 4.93925 34.4922C4.81852 34.388 4.67529 34.3087 4.50957 34.2543C4.34621 34.1974 4.16511 34.169 3.96624 34.169C3.6135 34.169 3.30928 34.2554 3.0536 34.4283C2.80029 34.6011 2.60497 34.8509 2.46766 35.1776C2.33272 35.5043 2.26525 35.8996 2.26525 36.3636C2.26525 36.8466 2.3339 37.2514 2.47121 37.5781C2.61089 37.9025 2.8062 38.1475 3.05715 38.3132C3.31047 38.4766 3.60994 38.5582 3.95559 38.5582C4.14972 38.5582 4.32609 38.5334 4.48471 38.4837C4.64569 38.4339 4.78655 38.3617 4.90729 38.267C5.0304 38.17 5.13102 38.0528 5.20914 37.9155C5.28963 37.7758 5.34527 37.6184 5.37604 37.4432L7.15161 37.4538C7.12084 37.7758 7.02732 38.093 6.87107 38.4055C6.71719 38.718 6.5053 39.0033 6.23542 39.2614C5.96553 39.517 5.63646 39.7206 5.2482 39.8722C4.86231 40.0237 4.4196 40.0994 3.92008 40.0994C3.26193 40.0994 2.67244 39.955 2.15161 39.6662C1.63315 39.375 1.22358 38.9512 0.922918 38.3949C0.622255 37.8385 0.471924 37.1615 0.471924 36.3636C0.471924 35.5634 0.624623 34.8852 0.93002 34.3288C1.23542 33.7725 1.64853 33.3499 2.16937 33.0611C2.6902 32.7723 3.27377 32.6278 3.92008 32.6278C4.36042 32.6278 4.76762 32.6894 5.14167 32.8125C5.51572 32.9332 5.84479 33.1108 6.12888 33.3452C6.41298 33.5772 6.6438 33.8625 6.82136 34.201C6.99891 34.5395 7.109 34.9266 7.15161 35.3622Z" fill="#647499"/>
<path fill-rule="evenodd" clip-rule="evenodd" d="M9.69511 40.0923C9.3471 40.0923 9.03815 40.0343 8.76827 39.9183C8.50075 39.8 8.28886 39.6224 8.13261 39.3857C7.97873 39.1465 7.90179 38.8471 7.90179 38.4872C7.90179 38.1842 7.95506 37.9285 8.06159 37.7202C8.16812 37.5118 8.3149 37.3426 8.50193 37.2124C8.68896 37.0822 8.90439 36.9839 9.14824 36.9176C9.39208 36.849 9.6525 36.8028 9.92949 36.7791C10.2396 36.7507 10.4894 36.7211 10.6788 36.6903C10.8682 36.6572 11.0055 36.611 11.0907 36.5518C11.1783 36.4903 11.2221 36.4039 11.2221 36.2926V36.2749C11.2221 36.0926 11.1594 35.9517 11.0339 35.8523C10.9084 35.7528 10.7391 35.7031 10.5261 35.7031C10.2964 35.7031 10.1118 35.7528 9.9721 35.8523C9.83242 35.9517 9.74365 36.089 9.70577 36.2642L8.1042 36.2074C8.15155 35.8759 8.27347 35.58 8.46997 35.3196C8.66883 35.0568 8.94109 34.8509 9.28673 34.7017C9.63474 34.5502 10.0526 34.4744 10.5403 34.4744C10.8883 34.4744 11.2091 34.5159 11.5026 34.5987C11.7962 34.6792 12.0519 34.7976 12.2697 34.9538C12.4875 35.1077 12.6556 35.2971 12.7739 35.522C12.8947 35.7469 12.9551 36.0038 12.9551 36.2926V40H11.3215V39.2401H11.2789C11.1819 39.4247 11.0576 39.581 10.9061 39.7088C10.7569 39.8366 10.5805 39.9325 10.3769 39.9964C10.1757 40.0604 9.94843 40.0923 9.69511 40.0923ZM10.2313 38.956C10.4184 38.956 10.5864 38.9181 10.7356 38.8423C10.8871 38.7666 11.0078 38.6624 11.0978 38.5298C11.1878 38.3949 11.2328 38.2386 11.2328 38.0611V37.5426C11.183 37.5687 11.1227 37.5923 11.0516 37.6136C10.983 37.6349 10.9072 37.6551 10.8244 37.674C10.7415 37.6929 10.6563 37.7095 10.5687 37.7237C10.4811 37.7379 10.3971 37.7509 10.3166 37.7628C10.1532 37.7888 10.0135 37.8291 9.89753 37.8835C9.78389 37.938 9.6963 38.009 9.63474 38.0966C9.57556 38.1818 9.54597 38.2836 9.54597 38.402C9.54597 38.5819 9.60989 38.7192 9.73773 38.8139C9.86793 38.9086 10.0325 38.956 10.2313 38.956Z" fill="#647499"/>
<path d="M15.7534 36.8892V40H14.0168V34.5455H15.6681V35.5469H15.7285C15.8492 35.2131 16.0552 34.9515 16.3464 34.7621C16.6376 34.5703 16.9844 34.4744 17.3869 34.4744C17.7704 34.4744 18.103 34.5608 18.3847 34.7337C18.6688 34.9041 18.889 35.1432 19.0453 35.451C19.2039 35.7564 19.282 36.1139 19.2796 36.5234V40H17.5431V36.8643C17.5455 36.5613 17.4685 36.3246 17.3123 36.1541C17.1584 35.9837 16.9442 35.8984 16.6695 35.8984C16.4873 35.8984 16.3263 35.9387 16.1866 36.0192C16.0493 36.0973 15.9427 36.2098 15.867 36.3565C15.7936 36.5033 15.7557 36.6809 15.7534 36.8892Z" fill="#647499"/>
<path d="M25.4506 34.5455L23.5792 40H21.5905L19.7226 34.5455H21.5515L22.5564 38.3026H22.6133L23.6218 34.5455H25.4506Z" fill="#647499"/>
<path fill-rule="evenodd" clip-rule="evenodd" d="M27.5076 40.0923C27.1596 40.0923 26.8507 40.0343 26.5808 39.9183C26.3132 39.8 26.1014 39.6224 25.9451 39.3857C25.7912 39.1465 25.7143 38.8471 25.7143 38.4872C25.7143 38.1842 25.7676 37.9285 25.8741 37.7202C25.9806 37.5118 26.1274 37.3426 26.3144 37.2124C26.5015 37.0822 26.7169 36.9839 26.9607 36.9176C27.2046 36.849 27.465 36.8028 27.742 36.7791C28.0521 36.7507 28.3019 36.7211 28.4913 36.6903C28.6807 36.6572 28.818 36.611 28.9032 36.5518C28.9908 36.4903 29.0346 36.4039 29.0346 36.2926V36.2749C29.0346 36.0926 28.9719 35.9517 28.8464 35.8523C28.7209 35.7528 28.5516 35.7031 28.3386 35.7031C28.1089 35.7031 27.9243 35.7528 27.7846 35.8523C27.6449 35.9517 27.5561 36.089 27.5183 36.2642L25.9167 36.2074C25.9641 35.8759 26.086 35.58 26.2825 35.3196C26.4813 35.0568 26.7536 34.8509 27.0992 34.7017C27.4472 34.5502 27.8651 34.4744 28.3528 34.4744C28.7008 34.4744 29.0216 34.5159 29.3151 34.5987C29.6087 34.6792 29.8644 34.7976 30.0822 34.9538C30.3 35.1077 30.4681 35.2971 30.5864 35.522C30.7072 35.7469 30.7676 36.0038 30.7676 36.2926V40H29.134V39.2401H29.0914C28.9944 39.4247 28.8701 39.581 28.7185 39.7088C28.5694 39.8366 28.393 39.9325 28.1894 39.9964C27.9882 40.0604 27.7609 40.0923 27.5076 40.0923ZM28.0438 38.956C28.2309 38.956 28.3989 38.9181 28.5481 38.8423C28.6996 38.7666 28.8204 38.6624 28.9103 38.5298C29.0003 38.3949 29.0453 38.2386 29.0453 38.0611V37.5426C28.9955 37.5687 28.9352 37.5923 28.8641 37.6136C28.7955 37.6349 28.7197 37.6551 28.6369 37.674C28.554 37.6929 28.4688 37.7095 28.3812 37.7237C28.2936 37.7379 28.2096 37.7509 28.1291 37.7628C27.9657 37.7888 27.826 37.8291 27.71 37.8835C27.5964 37.938 27.5088 38.009 27.4472 38.0966C27.3881 38.1818 27.3585 38.2836 27.3585 38.402C27.3585 38.5819 27.4224 38.7192 27.5502 38.8139C27.6804 38.9086 27.845 38.956 28.0438 38.956Z" fill="#647499"/>
<path d="M36.5914 36.2109L34.997 36.2536C34.9804 36.1399 34.9354 36.0393 34.862 35.9517C34.7886 35.8617 34.6927 35.7919 34.5744 35.7422C34.4584 35.6901 34.3234 35.6641 34.1695 35.6641C33.9683 35.6641 33.7967 35.7043 33.6546 35.7848C33.515 35.8653 33.4463 35.9742 33.4487 36.1115C33.4463 36.218 33.4889 36.3104 33.5765 36.3885C33.6665 36.4666 33.8263 36.5294 34.0559 36.5767L35.107 36.7756C35.6516 36.8797 36.0564 37.0526 36.3215 37.294C36.5891 37.5355 36.724 37.8551 36.7264 38.2528C36.724 38.6269 36.6127 38.9524 36.3926 39.2294C36.1748 39.5064 35.8765 39.7218 35.4977 39.8757C35.1189 40.0272 34.6856 40.103 34.198 40.103C33.4191 40.103 32.8047 39.9432 32.3549 39.6236C31.9075 39.3016 31.6518 38.8707 31.5879 38.331L33.3031 38.2884C33.3409 38.4872 33.4392 38.6387 33.5978 38.7429C33.7564 38.8471 33.9588 38.8991 34.2051 38.8991C34.4276 38.8991 34.6087 38.8577 34.7484 38.7749C34.8881 38.692 34.9591 38.5819 34.9614 38.4446C34.9591 38.3215 34.9046 38.2233 34.7981 38.1499C34.6916 38.0741 34.5247 38.0149 34.2974 37.9723L33.3457 37.7912C32.7988 37.6918 32.3916 37.5083 32.1241 37.2408C31.8566 36.9709 31.724 36.6276 31.7264 36.2109C31.724 35.8464 31.8211 35.535 32.0176 35.277C32.2141 35.0166 32.4934 34.8177 32.8556 34.6804C33.2178 34.5431 33.6452 34.4744 34.1376 34.4744C34.8762 34.4744 35.4586 34.6295 35.8847 34.9396C36.3109 35.2474 36.5464 35.6712 36.5914 36.2109Z" fill="#647499"/>
</svg>
