<svg width="34" height="42" viewBox="0 0 34 42" fill="none" xmlns="http://www.w3.org/2000/svg">
<path fill-rule="evenodd" clip-rule="evenodd" d="M8.5625 19.982C8.40779 19.9939 8.25147 20 8.09375 20C4.72826 20 2 17.2284 2 13.8095C2 10.3906 4.72826 7.61905 8.09375 7.61905C8.26818 7.61905 8.44091 7.62649 8.61163 7.64109C9.06809 3.34482 12.6495 0 17 0C21.6599 0 25.4375 3.83756 25.4375 8.57143C25.4375 9.16697 25.3777 9.74832 25.2639 10.3096C25.8047 10.1094 26.3896 10 27 10C29.7614 10 32 12.2386 32 15C32 17.7614 29.7614 20 27 20C26.7883 20 26.5797 19.9868 26.375 19.9613V20H22.3447L22.3448 19.9672C22.3448 17.0652 20.0291 14.7126 17.1724 14.7126C14.3158 14.7126 12 17.0652 12 19.9672L12.0001 20H8.5625V19.982ZM18 17C18 16.4477 17.5523 16 17 16C16.4477 16 16 16.4477 16 17V21.7962L14.6585 20.6224C14.2429 20.2587 13.6111 20.3009 13.2474 20.7165C12.8837 21.1321 12.9259 21.7639 13.3415 22.1276L16.3415 24.7526C16.7185 25.0825 17.2815 25.0825 17.6585 24.7526L20.6585 22.1276C21.0741 21.7639 21.1163 21.1321 20.7526 20.7165C20.3889 20.3009 19.7571 20.2587 19.3415 20.6224L18 21.7962V17Z" fill="#647499"/>
<path d="M1.03187 39V31.7273H6.10289V33.1548H2.78968V34.6463H5.84366V36.0774H2.78968V37.5724H6.10289V39H1.03187ZM8.68102 33.5455L9.57946 35.3423L10.5099 33.5455H12.2606L10.7371 36.2727L12.3174 39H10.5809L9.57946 37.1889L8.60289 39H6.84153L8.42534 36.2727L6.91966 33.5455H8.68102ZM13.0534 41.0455V33.5455H14.7721V34.4794H14.8254C14.8964 34.3137 14.997 34.1539 15.1272 34C15.2598 33.8461 15.4279 33.7206 15.6315 33.6236C15.8374 33.5241 16.0837 33.4744 16.3701 33.4744C16.7489 33.4744 17.1028 33.5739 17.4319 33.7727C17.7633 33.9716 18.0309 34.2782 18.2345 34.6925C18.4381 35.1068 18.5399 35.6347 18.5399 36.2763C18.5399 36.8942 18.4416 37.4115 18.2451 37.8281C18.051 38.2448 17.7882 38.5573 17.4568 38.7656C17.1277 38.974 16.7619 39.0781 16.3595 39.0781C16.0848 39.0781 15.8469 39.0331 15.6457 38.9432C15.4445 38.8532 15.2752 38.7348 15.1379 38.5881C15.0029 38.4413 14.8988 38.2839 14.8254 38.1158H14.7899V41.0455H13.0534ZM14.7544 36.2727C14.7544 36.5663 14.7934 36.822 14.8715 37.0398C14.952 37.2576 15.0669 37.4268 15.216 37.5476C15.3675 37.666 15.5486 37.7251 15.7593 37.7251C15.9724 37.7251 16.1535 37.666 16.3026 37.5476C16.4518 37.4268 16.5642 37.2576 16.64 37.0398C16.7181 36.822 16.7572 36.5663 16.7572 36.2727C16.7572 35.9792 16.7181 35.7247 16.64 35.5092C16.5642 35.2938 16.4518 35.1269 16.3026 35.0085C16.1559 34.8902 15.9748 34.831 15.7593 34.831C15.5463 34.831 15.3651 34.889 15.216 35.005C15.0669 35.121 14.952 35.2867 14.8715 35.5021C14.7934 35.7176 14.7544 35.9744 14.7544 36.2727ZM21.996 39.103C21.4231 39.103 20.9307 38.9858 20.5187 38.7514C20.1092 38.5147 19.7931 38.1856 19.5706 37.7642C19.3504 37.3404 19.2403 36.8492 19.2403 36.2905C19.2403 35.7294 19.3504 35.2382 19.5706 34.8168C19.7931 34.393 20.1092 34.0639 20.5187 33.8295C20.9307 33.5928 21.4231 33.4744 21.996 33.4744C22.5689 33.4744 23.0602 33.5928 23.4697 33.8295C23.8817 34.0639 24.1977 34.393 24.4179 34.8168C24.6404 35.2382 24.7517 35.7294 24.7517 36.2905C24.7517 36.8492 24.6404 37.3404 24.4179 37.7642C24.1977 38.1856 23.8817 38.5147 23.4697 38.7514C23.0602 38.9858 22.5689 39.103 21.996 39.103ZM22.0067 37.7926C22.215 37.7926 22.3914 37.7287 22.5358 37.6009C22.6802 37.473 22.7903 37.2955 22.866 37.0682C22.9442 36.8409 22.9832 36.5781 22.9832 36.2798C22.9832 35.9768 22.9442 35.7116 22.866 35.4844C22.7903 35.2571 22.6802 35.0795 22.5358 34.9517C22.3914 34.8239 22.215 34.7599 22.0067 34.7599C21.7912 34.7599 21.6089 34.8239 21.4598 34.9517C21.313 35.0795 21.2006 35.2571 21.1224 35.4844C21.0467 35.7116 21.0088 35.9768 21.0088 36.2798C21.0088 36.5781 21.0467 36.8409 21.1224 37.0682C21.2006 37.2955 21.313 37.473 21.4598 37.6009C21.6089 37.7287 21.7912 37.7926 22.0067 37.7926ZM25.6412 39V33.5455H27.328V34.5398H27.3849C27.4843 34.1799 27.6465 33.9124 27.8714 33.7372C28.0963 33.5597 28.3579 33.4709 28.6562 33.4709C28.7367 33.4709 28.8195 33.4768 28.9047 33.4886C28.99 33.4981 29.0693 33.5135 29.1427 33.5348V35.044C29.0598 35.0156 28.9509 34.9931 28.816 34.9766C28.6834 34.96 28.565 34.9517 28.4608 34.9517C28.2549 34.9517 28.069 34.9979 27.9033 35.0902C27.74 35.1802 27.6109 35.3068 27.5162 35.4702C27.4239 35.6312 27.3778 35.8205 27.3778 36.0384V39H25.6412ZM33.183 33.5455V34.8239H29.7419V33.5455H33.183ZM30.4628 32.2386H32.1993V37.2848C32.1993 37.3913 32.2159 37.4777 32.249 37.544C32.2845 37.608 32.3354 37.6541 32.4017 37.6825C32.468 37.7086 32.5473 37.7216 32.6396 37.7216C32.7059 37.7216 32.7758 37.7157 32.8492 37.7038C32.9249 37.6896 32.9817 37.6778 33.0196 37.6683L33.2824 38.9219C33.1995 38.9455 33.0824 38.9751 32.9308 39.0107C32.7817 39.0462 32.603 39.0687 32.3946 39.0781C31.9874 39.0971 31.6382 39.0497 31.347 38.9361C31.0582 38.8201 30.8369 38.6402 30.683 38.3963C30.5315 38.1525 30.4581 37.8459 30.4628 37.4766V32.2386Z" fill="#647499"/>
</svg>
