<svg width="33" height="42" viewBox="0 0 33 42" fill="none" xmlns="http://www.w3.org/2000/svg">
<path d="M7.09386 20C7.25158 20 7.4079 19.9939 7.56261 19.982V20H11.0002L11.0001 19.9672C11.0001 17.0652 13.3159 14.7126 16.1725 14.7126C19.0292 14.7126 21.3449 17.0652 21.3449 19.9672L21.3448 20H25.3751V19.9613C25.5799 19.9868 25.7884 20 26.0001 20C28.7615 20 31.0001 17.7614 31.0001 15C31.0001 12.2386 28.7615 10 26.0001 10C25.3897 10 24.8048 10.1094 24.264 10.3096C24.3778 9.74832 24.4376 9.16697 24.4376 8.57143C24.4376 3.83756 20.66 0 16.0001 0C11.6496 0 8.0682 3.34482 7.61174 7.64109C7.44102 7.62649 7.2683 7.61905 7.09386 7.61905C3.72838 7.61905 1.00011 10.3906 1.00011 13.8095C1.00011 17.2284 3.72838 20 7.09386 20Z" fill="#647499"/>
<path d="M16.0001 16C16.5524 16 17.0001 16.4477 17.0001 17V21.7962L18.3416 20.6224C18.7572 20.2587 19.389 20.3009 19.7527 20.7165C20.1164 21.1321 20.0743 21.7639 19.6586 22.1276L16.6586 24.7526C16.2816 25.0825 15.7186 25.0825 15.3416 24.7526L12.3416 22.1276C11.926 21.7639 11.8839 21.1321 12.2475 20.7165C12.6112 20.3009 13.243 20.2587 13.6586 20.6224L15.0001 21.7962V17C15.0001 16.4477 15.4478 16 16.0001 16Z" fill="#647499"/>
<path d="M0.0319824 31.7273V39H5.103V37.5724H1.7898V36.0774H4.84377V34.6463H1.7898V33.1548H5.103V31.7273H0.0319824Z" fill="#647499"/>
<path d="M8.57957 35.3423L7.68113 33.5455H5.91977L7.42545 36.2727L5.84164 39H7.60301L8.57957 37.1889L9.58099 39H11.3175L9.73724 36.2727L11.2607 33.5455H9.50996L8.57957 35.3423Z" fill="#647499"/>
<path fill-rule="evenodd" clip-rule="evenodd" d="M12.0535 33.5455V41.0455H13.79V38.1158H13.8255C13.8989 38.2839 14.003 38.4413 14.138 38.5881C14.2753 38.7348 14.4446 38.8532 14.6458 38.9432C14.847 39.0331 15.085 39.0781 15.3596 39.0781C15.762 39.0781 16.1278 38.974 16.4569 38.7656C16.7883 38.5573 17.0511 38.2448 17.2452 37.8281C17.4417 37.4115 17.54 36.8942 17.54 36.2763C17.54 35.6347 17.4382 35.1068 17.2346 34.6925C17.031 34.2782 16.7635 33.9716 16.432 33.7727C16.1029 33.5739 15.749 33.4744 15.3702 33.4744C15.0838 33.4744 14.8376 33.5241 14.6316 33.6236C14.428 33.7206 14.2599 33.8461 14.1273 34C13.9971 34.1539 13.8965 34.3137 13.8255 34.4794H13.7722V33.5455H12.0535ZM13.8716 37.0398C13.7935 36.822 13.7545 36.5663 13.7545 36.2727C13.7545 35.9744 13.7935 35.7176 13.8716 35.5021C13.9521 35.2867 14.067 35.121 14.2161 35.005C14.3653 34.889 14.5464 34.831 14.7594 34.831C14.9749 34.831 15.156 34.8902 15.3028 35.0085C15.4519 35.1269 15.5644 35.2938 15.6401 35.5092C15.7182 35.7247 15.7573 35.9792 15.7573 36.2727C15.7573 36.5663 15.7182 36.822 15.6401 37.0398C15.5644 37.2576 15.4519 37.4268 15.3028 37.5476C15.1536 37.666 14.9725 37.7251 14.7594 37.7251C14.5487 37.7251 14.3676 37.666 14.2161 37.5476C14.067 37.4268 13.9521 37.2576 13.8716 37.0398Z" fill="#647499"/>
<path fill-rule="evenodd" clip-rule="evenodd" d="M19.5188 38.7514C19.9308 38.9858 20.4232 39.103 20.9961 39.103C21.569 39.103 22.0603 38.9858 22.4698 38.7514C22.8818 38.5147 23.1978 38.1856 23.418 37.7642C23.6405 37.3404 23.7518 36.8492 23.7518 36.2905C23.7518 35.7294 23.6405 35.2382 23.418 34.8168C23.1978 34.393 22.8818 34.0639 22.4698 33.8295C22.0603 33.5928 21.569 33.4744 20.9961 33.4744C20.4232 33.4744 19.9308 33.5928 19.5188 33.8295C19.1093 34.0639 18.7932 34.393 18.5707 34.8168C18.3505 35.2382 18.2404 35.7294 18.2404 36.2905C18.2404 36.8492 18.3505 37.3404 18.5707 37.7642C18.7932 38.1856 19.1093 38.5147 19.5188 38.7514ZM21.5359 37.6009C21.3915 37.7287 21.2151 37.7926 21.0068 37.7926C20.7913 37.7926 20.609 37.7287 20.4599 37.6009C20.3131 37.473 20.2007 37.2955 20.1225 37.0682C20.0468 36.8409 20.0089 36.5781 20.0089 36.2798C20.0089 35.9768 20.0468 35.7116 20.1225 35.4844C20.2007 35.2571 20.3131 35.0795 20.4599 34.9517C20.609 34.8239 20.7913 34.7599 21.0068 34.7599C21.2151 34.7599 21.3915 34.8239 21.5359 34.9517C21.6803 35.0795 21.7904 35.2571 21.8661 35.4844C21.9443 35.7116 21.9833 35.9768 21.9833 36.2798C21.9833 36.5781 21.9443 36.8409 21.8661 37.0682C21.7904 37.2955 21.6803 37.473 21.5359 37.6009Z" fill="#647499"/>
<path d="M26.3281 33.5455H24.6414V39H26.3779V36.0384C26.3779 35.8205 26.424 35.6312 26.5164 35.4702C26.6111 35.3068 26.7401 35.1802 26.9034 35.0902C27.0692 34.9979 27.255 34.9517 27.461 34.9517C27.5651 34.9517 27.6835 34.96 27.8161 34.9766C27.951 34.9931 28.0599 35.0156 28.1428 35.044V33.5348C28.0694 33.5135 27.9901 33.4981 27.9049 33.4886C27.8196 33.4768 27.7368 33.4709 27.6563 33.4709C27.358 33.4709 27.0964 33.5597 26.8715 33.7372C26.6466 33.9124 26.4844 34.1799 26.385 34.5398H26.3281V33.5455Z" fill="#647499"/>
<path d="M32.1831 34.8239V33.5455H31.1994V32.2386H29.4629V33.5455H28.742V34.8239H29.4629V37.4766C29.4582 37.8459 29.5316 38.1525 29.6831 38.3963C29.837 38.6402 30.0583 38.8201 30.3471 38.9361C30.6383 39.0497 30.9875 39.0971 31.3947 39.0781C31.6031 39.0687 31.7818 39.0462 31.931 39.0107C32.0825 38.9751 32.1997 38.9455 32.2825 38.9219L32.0197 37.6683C31.9819 37.6778 31.925 37.6896 31.8493 37.7038C31.7759 37.7157 31.706 37.7216 31.6398 37.7216C31.5474 37.7216 31.4681 37.7086 31.4018 37.6825C31.3355 37.6541 31.2846 37.608 31.2491 37.544C31.216 37.4777 31.1994 37.3913 31.1994 37.2848V34.8239H32.1831Z" fill="#647499"/>
</svg>
