<svg width="24" height="26" viewBox="0 0 24 26" fill="none" xmlns="http://www.w3.org/2000/svg">
<path d="M16.6428 12.7085C16.7907 12.4152 17.2093 12.4152 17.3572 12.7085L19.2868 16.5361C19.3254 16.6125 19.3875 16.6746 19.4639 16.7132L23.2915 18.6428C23.5848 18.7907 23.5848 19.2093 23.2915 19.3572L19.4639 21.2868C19.3875 21.3254 19.3254 21.3875 19.2868 21.4639L17.3572 25.2915C17.2093 25.5848 16.7907 25.5848 16.6428 25.2915L14.7132 21.4639C14.6746 21.3875 14.6125 21.3254 14.5361 21.2868L10.7085 19.3572C10.4152 19.2093 10.4152 18.7907 10.7085 18.6428L14.5361 16.7132C14.6125 16.6746 14.6746 16.6125 14.7132 16.5361L16.6428 12.7085Z" fill="white"/>
<path d="M4.73212 9.53137C4.84299 9.31143 5.15701 9.31143 5.26788 9.53137L6.63132 12.2358C6.66024 12.2932 6.7068 12.3398 6.76415 12.3687L9.46863 13.7321C9.68857 13.843 9.68857 14.157 9.46863 14.2679L6.76415 15.6313C6.7068 15.6602 6.66024 15.7068 6.63132 15.7642L5.26788 18.4686C5.15701 18.6886 4.84299 18.6886 4.73212 18.4686L3.36868 15.7642C3.33976 15.7068 3.2932 15.6602 3.23585 15.6313L0.531366 14.2679C0.311433 14.157 0.311433 13.843 0.531365 13.7321L3.23585 12.3687C3.2932 12.3398 3.33976 12.2932 3.36868 12.2358L4.73212 9.53137Z" fill="white"/>
<path d="M16.8214 2.35424C16.8953 2.20762 17.1047 2.20762 17.1786 2.35424L18.311 4.60045C18.3303 4.63869 18.3613 4.66973 18.3995 4.68901L20.6458 5.82141C20.7924 5.89533 20.7924 6.10467 20.6458 6.17859L18.3995 7.31099C18.3613 7.33027 18.3303 7.36131 18.311 7.39955L17.1786 9.64576C17.1047 9.79238 16.8953 9.79238 16.8214 9.64576L15.689 7.39955C15.6697 7.36131 15.6387 7.33027 15.6005 7.31099L13.3542 6.17859C13.2076 6.10467 13.2076 5.89533 13.3542 5.82141L15.6005 4.68901C15.6387 4.66973 15.6697 4.63869 15.689 4.60045L16.8214 2.35424Z" fill="white"/>
<path d="M6.4272 7.71023V3.59659H7.57209V7.71023H6.4272ZM4.94141 6.22727V5.08239H9.05504V6.22727H4.94141Z" fill="white"/>
</svg>
