<svg width="34" height="43" viewBox="0 0 34 43" fill="none" xmlns="http://www.w3.org/2000/svg">
<path fill-rule="evenodd" clip-rule="evenodd" d="M5.28583 10.1429L2.78896 8.89443C2.05192 8.52591 2.05192 7.47411 2.78897 7.10558L16.5529 0.223615C16.8344 0.082851 17.1658 0.0828512 17.4473 0.223615L31.2113 7.10558C31.9483 7.47411 31.9483 8.52591 31.2113 8.89443L28.7144 10.1429L31.5663 12.0442C32.2052 12.4701 32.1456 13.4273 31.4589 13.7706L28.7144 15.1429L31.5663 17.0442C32.2052 17.4701 32.1456 18.4273 31.4589 18.7706L17.4473 25.7764C17.1658 25.9172 16.8344 25.9172 16.5529 25.7764L2.54137 18.7706C1.85461 18.4273 1.79502 17.4701 2.43388 17.0442L5.28582 15.1429L2.54137 13.7706C1.85461 13.4273 1.79502 12.4701 2.43388 12.0442L5.28583 10.1429ZM5.47225 8.00001L17.0001 2.23608L28.528 8.00001L22.2788 11.1246L17.4105 13.3153C17.1495 13.4328 16.8507 13.4328 16.5897 13.3153L11.7215 11.1246L5.47225 8.00001ZM10.8636 12.9317L7.18865 11.278L4.97706 12.7524L11.7215 16.1246L16.5897 18.3153C16.8507 18.4328 17.1495 18.4328 17.4105 18.3153L22.2787 16.1246L29.0232 12.7524L26.8116 11.278L23.1367 12.9317L17.4473 15.7764C17.1658 15.9172 16.8344 15.9172 16.5529 15.7764L10.8636 12.9317ZM7.18865 16.278L10.8635 17.9317L16.5529 20.7764C16.8344 20.9172 17.1658 20.9172 17.4473 20.7764L23.1367 17.9317L26.8116 16.278L29.0232 17.7524L17.0001 23.7639L4.97706 17.7524L7.18865 16.278Z" fill="#647499"/>
<path d="M0.988037 32.7273V40H5.77142V38.5725H2.74585V32.7273H0.988037Z" fill="#647499"/>
<path fill-rule="evenodd" clip-rule="evenodd" d="M7.29219 39.9183C7.56208 40.0343 7.87103 40.0923 8.21904 40.0923C8.47235 40.0923 8.69963 40.0604 8.90086 39.9965C9.10445 39.9325 9.28083 39.8367 9.42998 39.7088C9.58149 39.581 9.70578 39.4247 9.80285 39.2401H9.84546V40H11.479V36.2926C11.479 36.0038 11.4186 35.7469 11.2979 35.522C11.1795 35.2971 11.0114 35.1077 10.7936 34.9538C10.5758 34.7976 10.3201 34.6792 10.0266 34.5987C9.73301 34.5159 9.41222 34.4744 9.06421 34.4744C8.57652 34.4744 8.15867 34.5502 7.81066 34.7017C7.46501 34.8509 7.19276 35.0568 6.9939 35.3196C6.7974 35.58 6.67548 35.876 6.62813 36.2074L8.22969 36.2642C8.26757 36.089 8.35635 35.9517 8.49603 35.8523C8.63571 35.7528 8.82036 35.7031 9.05 35.7031C9.26307 35.7031 9.43234 35.7528 9.55782 35.8523C9.68329 35.9517 9.74603 36.0926 9.74603 36.2749V36.2926C9.74603 36.4039 9.70223 36.4903 9.61464 36.5519C9.52941 36.611 9.3921 36.6572 9.2027 36.6903C9.01331 36.7211 8.76355 36.7507 8.45341 36.7791C8.17642 36.8028 7.91601 36.849 7.67216 36.9176C7.42832 36.9839 7.21288 37.0822 7.02586 37.2124C6.83883 37.3426 6.69205 37.5118 6.58552 37.7202C6.47898 37.9285 6.42571 38.1842 6.42571 38.4872C6.42571 38.8471 6.50266 39.1466 6.65654 39.3857C6.81279 39.6224 7.02467 39.8 7.29219 39.9183ZM9.25952 38.8423C9.11037 38.9181 8.94229 38.956 8.75526 38.956C8.5564 38.956 8.39186 38.9086 8.26165 38.8139C8.13381 38.7192 8.06989 38.5819 8.06989 38.402C8.06989 38.2836 8.09948 38.1818 8.15867 38.0966C8.22022 38.009 8.30782 37.938 8.42145 37.8835C8.53746 37.8291 8.67713 37.7888 8.84049 37.7628C8.92098 37.751 9.00502 37.7379 9.09262 37.7237C9.18021 37.7095 9.26544 37.693 9.3483 37.674C9.43116 37.6551 9.50692 37.635 9.57557 37.6136C9.6466 37.5923 9.70696 37.5687 9.75668 37.5426V38.0611C9.75668 38.2386 9.7117 38.3949 9.62174 38.5298C9.53178 38.6624 9.41104 38.7666 9.25952 38.8423Z" fill="#647499"/>
<path d="M12.8178 41.9957C13.0024 42.0289 13.1989 42.0455 13.4072 42.0455C13.8239 42.0455 14.1743 41.9804 14.4584 41.8502C14.7448 41.7199 14.978 41.54 15.158 41.3104C15.3403 41.0831 15.4811 40.8203 15.5805 40.522L17.6367 34.5455H15.8078L14.7886 38.4375H14.7318L13.7269 34.5455H11.9087L13.8476 40.1989L13.7801 40.3622C13.7257 40.4972 13.6475 40.5907 13.5457 40.6428C13.4463 40.6972 13.3268 40.7197 13.1871 40.7102C13.0498 40.7008 12.8959 40.6676 12.7254 40.6108L12.3419 41.8715C12.4745 41.9235 12.6331 41.965 12.8178 41.9957Z" fill="#647499"/>
<path fill-rule="evenodd" clip-rule="evenodd" d="M19.1992 39.7656C19.6135 39.9905 20.1059 40.103 20.6764 40.103C21.1523 40.103 21.5713 40.0308 21.9335 39.8864C22.2957 39.7396 22.5881 39.5348 22.8107 39.272C23.0356 39.0069 23.1812 38.6956 23.2474 38.3381L21.653 38.2919C21.608 38.4127 21.5405 38.5145 21.4506 38.5973C21.3606 38.6802 21.2529 38.7429 21.1274 38.7855C21.0019 38.8281 20.8623 38.8494 20.7084 38.8494C20.4858 38.8494 20.2941 38.8033 20.1331 38.7109C19.9721 38.6186 19.8478 38.4896 19.7602 38.3239C19.6726 38.1558 19.6288 37.9605 19.6288 37.7379V37.6918H23.2652V37.2585C23.2652 36.8111 23.2001 36.4145 23.0699 36.0689C22.9397 35.7209 22.7574 35.4285 22.523 35.1918C22.2886 34.955 22.0105 34.7763 21.6885 34.6555C21.3665 34.5348 21.0114 34.4744 20.6232 34.4744C20.0739 34.4744 19.5969 34.5928 19.192 34.8296C18.7872 35.0639 18.4735 35.393 18.251 35.8168C18.0285 36.2382 17.9172 36.7306 17.9172 37.294C17.9172 37.8741 18.0273 38.3748 18.2474 38.7962C18.47 39.2152 18.7872 39.5384 19.1992 39.7656ZM19.6299 36.6832C19.6385 36.5077 19.6855 36.3503 19.7709 36.2109C19.8608 36.0618 19.9828 35.9446 20.1367 35.8594C20.2905 35.7718 20.4645 35.728 20.6587 35.728C20.8504 35.728 21.0197 35.7694 21.1665 35.8523C21.3156 35.9328 21.4328 36.0452 21.518 36.1896C21.6033 36.3341 21.6471 36.4986 21.6494 36.6832H19.6299Z" fill="#647499"/>
<path d="M24.1521 34.5455V40H25.8886V37.0384C25.8886 36.8206 25.9348 36.6312 26.0271 36.4702C26.1218 36.3068 26.2508 36.1802 26.4142 36.0902C26.5799 35.9979 26.7657 35.9517 26.9717 35.9517C27.0759 35.9517 27.1942 35.96 27.3268 35.9766C27.4618 35.9931 27.5707 36.0156 27.6535 36.044V34.5348C27.5801 34.5135 27.5008 34.4981 27.4156 34.4886C27.3304 34.4768 27.2475 34.4709 27.167 34.4709C26.8687 34.4709 26.6071 34.5597 26.3822 34.7372C26.1573 34.9124 25.9951 35.1799 25.8957 35.5398H25.8389V34.5455H24.1521Z" fill="#647499"/>
<path d="M31.5287 36.2536L33.1232 36.2109C33.0782 35.6712 32.8426 35.2474 32.4165 34.9396C31.9903 34.6295 31.408 34.4744 30.6693 34.4744C30.1769 34.4744 29.7496 34.5431 29.3874 34.6804C29.0251 34.8177 28.7458 35.0166 28.5493 35.277C28.3528 35.535 28.2557 35.8464 28.2581 36.2109C28.2557 36.6276 28.3883 36.9709 28.6558 37.2408C28.9233 37.5083 29.3305 37.6918 29.8774 37.7912L30.8291 37.9723C31.0564 38.0149 31.2233 38.0741 31.3298 38.1499C31.4364 38.2233 31.4908 38.3215 31.4932 38.4446C31.4908 38.5819 31.4198 38.692 31.2801 38.7749C31.1404 38.8577 30.9593 38.8992 30.7368 38.8992C30.4906 38.8992 30.2882 38.8471 30.1296 38.7429C29.9709 38.6387 29.8727 38.4872 29.8348 38.2884L28.1196 38.331C28.1835 38.8707 28.4392 39.3016 28.8867 39.6236C29.3365 39.9432 29.9508 40.103 30.7297 40.103C31.2174 40.103 31.6506 40.0272 32.0294 39.8757C32.4082 39.7218 32.7065 39.5064 32.9243 39.2294C33.1445 38.9524 33.2557 38.6269 33.2581 38.2528C33.2557 37.8551 33.1208 37.5355 32.8533 37.294C32.5881 37.0526 32.1833 36.8797 31.6388 36.7756L30.5876 36.5767C30.358 36.5294 30.1982 36.4666 30.1082 36.3885C30.0206 36.3104 29.978 36.218 29.9804 36.1115C29.978 35.9742 30.0467 35.8653 30.1864 35.7848C30.3284 35.7043 30.5001 35.6641 30.7013 35.6641C30.8552 35.6641 30.9901 35.6901 31.1061 35.7422C31.2245 35.7919 31.3204 35.8618 31.3938 35.9517C31.4671 36.0393 31.5121 36.1399 31.5287 36.2536Z" fill="#647499"/>
</svg>
