<svg width="37" height="37" viewBox="0 0 37 37" fill="none" xmlns="http://www.w3.org/2000/svg">
<path fill-rule="evenodd" clip-rule="evenodd" d="M7.35699 5.12046C6.65204 4.39797 6.65204 3.2266 7.35699 2.50412L9.27161 0.541862C9.97655 -0.18062 11.1195 -0.180621 11.8244 0.541861C12.5294 1.26434 12.5294 2.43572 11.8244 3.1582L9.90982 5.12045C9.20487 5.84294 8.06193 5.84294 7.35699 5.12046ZM3.3729 6.58891C3.3729 5.59197 4.18108 4.78379 5.17802 4.78379C6.17497 4.78379 6.98315 5.59197 6.98315 6.58891V6.67873C6.98315 7.67567 6.17497 8.48385 5.17802 8.48385C4.18108 8.48385 3.3729 7.67567 3.3729 6.67873V6.58891ZM13.3011 4.78379C12.3041 4.78379 11.4959 5.59197 11.4959 6.58891V6.67873C11.4959 7.67567 12.3041 8.48385 13.3011 8.48385C14.298 8.48385 15.1062 7.67567 15.1062 6.67873V6.58891C15.1062 5.59197 14.298 4.78379 13.3011 4.78379ZM18.7165 17.6891C18.7165 16.6922 19.5246 15.884 20.5216 15.884C21.5185 15.884 22.3267 16.6922 22.3267 17.6891V17.7789C22.3267 18.7759 21.5185 19.584 20.5216 19.584C19.5246 19.584 18.7165 18.7759 18.7165 17.7789V17.6891ZM30.4498 14.959C29.4528 14.959 28.6447 15.7671 28.6447 16.7641V16.8539C28.6447 17.8508 29.4528 18.659 30.4498 18.659C31.4467 18.659 32.2549 17.8508 32.2549 16.8539V16.7641C32.2549 15.7671 31.4467 14.959 30.4498 14.959ZM12.3985 14.9141C12.3985 13.9171 13.2067 13.1089 14.2037 13.1089C15.2006 13.1089 16.0088 13.9171 16.0088 14.9141V15.0039C16.0088 16.0008 15.2006 16.809 14.2037 16.809C13.2067 16.809 12.3985 16.0008 12.3985 15.0039V14.9141ZM27.7421 0.158713C26.7451 0.158713 25.937 0.966894 25.937 1.96384V2.05365C25.937 3.05059 26.7451 3.85878 27.7421 3.85878C28.739 3.85878 29.5472 3.0506 29.5472 2.05365V1.96384C29.5472 0.966896 28.739 0.158713 27.7421 0.158713ZM15.4801 5.12046C14.7751 4.39797 14.7751 3.2266 15.4801 2.50412L17.3947 0.541862C18.0996 -0.18062 19.2426 -0.180621 19.9475 0.541861C20.6525 1.26434 20.6525 2.43572 19.9475 3.1582L18.0329 5.12045C17.328 5.84294 16.185 5.84294 15.4801 5.12046ZM22.7006 13.6043C21.9956 14.3268 21.9956 15.4982 22.7006 16.2206C23.4055 16.9431 24.5484 16.9431 25.2534 16.2206L27.168 14.2584C27.873 13.5359 27.873 12.3645 27.168 11.642C26.4631 10.9196 25.3201 10.9196 24.6152 11.6421L22.7006 13.6043ZM16.3826 13.4456C15.6777 12.7231 15.6777 11.5517 16.3826 10.8293L22.6553 4.40053C23.3602 3.67805 24.5032 3.67805 25.2081 4.40054C25.9131 5.12302 25.9131 6.29439 25.2081 7.01688L18.9355 13.4456C18.2305 14.1681 17.0876 14.1681 16.3826 13.4456ZM6.00281 20.3837L8.75688 17.5611C9.46182 16.8386 10.6048 16.8386 11.3097 17.5611L11.5413 17.7984C12.1183 18.3898 12.1183 19.3487 11.5413 19.9401C11.2642 20.2241 10.8883 20.3837 10.4964 20.3837H6.00281ZM3.52871 16.4441C2.82376 15.7216 2.82376 14.5503 3.52871 13.8278L8.36906 8.86701C9.074 8.14453 10.2169 8.14453 10.9219 8.86701C11.6268 9.58949 11.6268 10.7609 10.9219 11.4834L6.08154 16.4441C5.3766 17.1666 4.23365 17.1666 3.52871 16.4441ZM28.1159 8.27767C27.411 9.00016 27.411 10.1715 28.1159 10.894C28.8209 11.6165 29.9638 11.6165 30.6688 10.894L34.4713 6.99689C35.1762 6.27441 35.1762 5.10304 34.4713 4.38055C33.7663 3.65807 32.6234 3.65807 31.9185 4.38056L28.1159 8.27767Z" fill="#647499"/>
<path d="M0.734996 34.5V27.2273H3.73926C4.28377 27.2273 4.7537 27.3338 5.14906 27.5469C5.54679 27.7576 5.85337 28.0523 6.0688 28.4311C6.28424 28.8075 6.39196 29.2455 6.39196 29.745C6.39196 30.2469 6.28187 30.6861 6.0617 31.0625C5.8439 31.4366 5.53258 31.7266 5.12775 31.9325C4.72292 32.1385 4.24234 32.2415 3.68599 32.2415H1.8323V30.8565H3.35929C3.62444 30.8565 3.84579 30.8104 4.02335 30.718C4.20327 30.6257 4.3394 30.4967 4.43173 30.331C4.52406 30.1629 4.57022 29.9676 4.57022 29.745C4.57022 29.5201 4.52406 29.326 4.43173 29.1626C4.3394 28.9969 4.20327 28.8691 4.02335 28.7791C3.84342 28.6892 3.62207 28.6442 3.35929 28.6442H2.49281V34.5H0.734996ZM8.60076 34.5923C8.25275 34.5923 7.9438 34.5343 7.67392 34.4183C7.4064 34.3 7.19451 34.1224 7.03826 33.8857C6.88438 33.6465 6.80744 33.3471 6.80744 32.9872C6.80744 32.6842 6.86071 32.4285 6.96724 32.2202C7.07377 32.0118 7.22056 31.8426 7.40758 31.7124C7.59461 31.5821 7.81004 31.4839 8.05389 31.4176C8.29773 31.349 8.55815 31.3028 8.83514 31.2791C9.14527 31.2507 9.39503 31.2211 9.58443 31.1903C9.77382 31.1572 9.91113 31.111 9.99636 31.0518C10.084 30.9903 10.1278 30.9039 10.1278 30.7926V30.7749C10.1278 30.5926 10.065 30.4517 9.93954 30.3523C9.81407 30.2528 9.6448 30.2031 9.43173 30.2031C9.20209 30.2031 9.01743 30.2528 8.87775 30.3523C8.73807 30.4517 8.6493 30.589 8.61142 30.7642L7.00985 30.7074C7.0572 30.3759 7.17913 30.08 7.37562 29.8196C7.57449 29.5568 7.84674 29.3509 8.19238 29.2017C8.54039 29.0502 8.95824 28.9744 9.44593 28.9744C9.79395 28.9744 10.1147 29.0159 10.4083 29.0987C10.7019 29.1792 10.9575 29.2976 11.1753 29.4538C11.3931 29.6077 11.5612 29.7971 11.6796 30.022C11.8003 30.2469 11.8607 30.5038 11.8607 30.7926V34.5H10.2272V33.7401H10.1846C10.0875 33.9247 9.96322 34.081 9.8117 34.2088C9.66255 34.3366 9.48618 34.4325 9.28258 34.4964C9.08135 34.5604 8.85408 34.5923 8.60076 34.5923ZM9.13699 33.456C9.32401 33.456 9.4921 33.4181 9.64125 33.3423C9.79276 33.2666 9.9135 33.1624 10.0035 33.0298C10.0934 32.8949 10.1384 32.7386 10.1384 32.5611V32.0426C10.0887 32.0687 10.0283 32.0923 9.9573 32.1136C9.88864 32.1349 9.81288 32.1551 9.73002 32.174C9.64717 32.1929 9.56194 32.2095 9.47434 32.2237C9.38675 32.2379 9.3027 32.2509 9.22221 32.2628C9.05886 32.2888 8.91918 32.3291 8.80318 32.3835C8.68954 32.438 8.60195 32.509 8.54039 32.5966C8.48121 32.6818 8.45162 32.7836 8.45162 32.902C8.45162 33.0819 8.51554 33.2192 8.64338 33.3139C8.77359 33.4086 8.93812 33.456 9.13699 33.456ZM16.0013 29.0455V30.3239H12.5603V29.0455H16.0013ZM13.2812 27.7386H15.0177V32.7848C15.0177 32.8913 15.0342 32.9777 15.0674 33.044C15.1029 33.108 15.1538 33.1541 15.2201 33.1825C15.2864 33.2086 15.3657 33.2216 15.458 33.2216C15.5243 33.2216 15.5941 33.2157 15.6675 33.2038C15.7433 33.1896 15.8001 33.1778 15.838 33.1683L16.1008 34.4219C16.0179 34.4455 15.9007 34.4751 15.7492 34.5107C15.6001 34.5462 15.4213 34.5687 15.213 34.5781C14.8058 34.5971 14.4566 34.5497 14.1654 34.4361C13.8766 34.3201 13.6552 34.1402 13.5013 33.8963C13.3498 33.6525 13.2764 33.3459 13.2812 32.9766V27.7386ZM19.9662 29.0455V30.3239H16.5251V29.0455H19.9662ZM17.246 27.7386H18.9825V32.7848C18.9825 32.8913 18.9991 32.9777 19.0322 33.044C19.0677 33.108 19.1186 33.1541 19.1849 33.1825C19.2512 33.2086 19.3305 33.2216 19.4229 33.2216C19.4891 33.2216 19.559 33.2157 19.6324 33.2038C19.7081 33.1896 19.7649 33.1778 19.8028 33.1683L20.0656 34.4219C19.9827 34.4455 19.8656 34.4751 19.714 34.5107C19.5649 34.5462 19.3862 34.5687 19.1778 34.5781C18.7706 34.5971 18.4214 34.5497 18.1302 34.4361C17.8414 34.3201 17.6201 34.1402 17.4662 33.8963C17.3147 33.6525 17.2413 33.3459 17.246 32.9766V27.7386ZM23.3433 34.603C22.7728 34.603 22.2803 34.4905 21.866 34.2656C21.4541 34.0384 21.1369 33.7152 20.9143 33.2962C20.6942 32.8748 20.5841 32.3741 20.5841 31.794C20.5841 31.2306 20.6953 30.7382 20.9179 30.3168C21.1404 29.893 21.4541 29.5639 21.8589 29.3295C22.2638 29.0928 22.7408 28.9744 23.29 28.9744C23.6783 28.9744 24.0334 29.0348 24.3554 29.1555C24.6773 29.2763 24.9555 29.455 25.1899 29.6918C25.4243 29.9285 25.6066 30.2209 25.7368 30.5689C25.867 30.9145 25.9321 31.3111 25.9321 31.7585V32.1918H21.1913V31.1832H24.3163C24.314 30.9986 24.2702 30.834 24.1849 30.6896C24.0997 30.5452 23.9825 30.4328 23.8334 30.3523C23.6866 30.2694 23.5173 30.228 23.3256 30.228C23.1314 30.228 22.9574 30.2718 22.8035 30.3594C22.6497 30.4446 22.5277 30.5618 22.4378 30.7109C22.3478 30.8577 22.3005 31.0246 22.2957 31.2116V32.2379C22.2957 32.4605 22.3395 32.6558 22.4271 32.8239C22.5147 32.9896 22.639 33.1186 22.8 33.2109C22.961 33.3033 23.1527 33.3494 23.3753 33.3494C23.5291 33.3494 23.6688 33.3281 23.7943 33.2855C23.9198 33.2429 24.0275 33.1802 24.1175 33.0973C24.2074 33.0144 24.2749 32.9126 24.3199 32.7919L25.9143 32.8381C25.848 33.1955 25.7024 33.5069 25.4775 33.772C25.255 34.0348 24.9626 34.2396 24.6004 34.3864C24.2382 34.5308 23.8192 34.603 23.3433 34.603ZM26.819 34.5V29.0455H28.5058V30.0398H28.5626C28.662 29.6799 28.8242 29.4124 29.0491 29.2372C29.274 29.0597 29.5356 28.9709 29.8339 28.9709C29.9144 28.9709 29.9972 28.9768 30.0825 28.9886C30.1677 28.9981 30.247 29.0135 30.3204 29.0348V30.544C30.2375 30.5156 30.1286 30.4931 29.9937 30.4766C29.8611 30.46 29.7427 30.4517 29.6386 30.4517C29.4326 30.4517 29.2468 30.4979 29.0811 30.5902C28.9177 30.6802 28.7887 30.8068 28.694 30.9702C28.6017 31.1312 28.5555 31.3205 28.5555 31.5384V34.5H26.819ZM32.7645 31.3892V34.5H31.028V29.0455H32.6792V30.0469H32.7396C32.8604 29.7131 33.0663 29.4515 33.3575 29.2621C33.6487 29.0703 33.9955 28.9744 34.398 28.9744C34.7815 28.9744 35.1141 29.0608 35.3959 29.2337C35.68 29.4041 35.9001 29.6432 36.0564 29.951C36.215 30.2564 36.2931 30.6139 36.2907 31.0234V34.5H34.5542V31.3643C34.5566 31.0613 34.4797 30.8246 34.3234 30.6541C34.1695 30.4837 33.9553 30.3984 33.6807 30.3984C33.4984 30.3984 33.3374 30.4387 33.1977 30.5192C33.0604 30.5973 32.9539 30.7098 32.8781 30.8565C32.8047 31.0033 32.7668 31.1809 32.7645 31.3892Z" fill="#647499"/>
</svg>
