<svg width="43" height="36" viewBox="0 0 43 36" fill="none" xmlns="http://www.w3.org/2000/svg">
<path d="M10.3571 5.12046C9.65212 4.39797 9.65212 3.2266 10.3571 2.50412L12.2717 0.541862C12.9766 -0.18062 14.1196 -0.180621 14.8245 0.541861C15.5294 1.26434 15.5294 2.43572 14.8245 3.1582L12.9099 5.12045C12.205 5.84294 11.062 5.84294 10.3571 5.12046Z" fill="#647499"/>
<path d="M6.37301 6.58891C6.37301 5.59197 7.18117 4.78379 8.17812 4.78379C9.17507 4.78379 9.98324 5.59197 9.98324 6.58891V6.67873C9.98324 7.67567 9.17507 8.48385 8.17812 8.48385C7.18117 8.48385 6.37301 7.67567 6.37301 6.67873V6.58891Z" fill="#647499"/>
<path d="M14.4961 6.58891C14.4961 5.59197 15.3042 4.78379 16.3012 4.78379C17.2981 4.78379 18.1063 5.59197 18.1063 6.58891V6.67873C18.1063 7.67567 17.2981 8.48385 16.3012 8.48385C15.3042 8.48385 14.4961 7.67567 14.4961 6.67873V6.58891Z" fill="#647499"/>
<path d="M21.7165 17.6891C21.7165 16.6922 22.5247 15.884 23.5216 15.884C24.5186 15.884 25.3267 16.6922 25.3267 17.6891V17.7789C25.3267 18.7759 24.5186 19.584 23.5216 19.584C22.5247 19.584 21.7165 18.7759 21.7165 17.7789V17.6891Z" fill="#647499"/>
<path d="M31.6447 16.7641C31.6447 15.7671 32.4529 14.959 33.4498 14.959C34.4468 14.959 35.255 15.7671 35.255 16.7641V16.8539C35.255 17.8508 34.4468 18.659 33.4498 18.659C32.4529 18.659 31.6447 17.8508 31.6447 16.8539V16.7641Z" fill="#647499"/>
<path d="M15.3986 14.9141C15.3986 13.9171 16.2068 13.1089 17.2038 13.1089C18.2007 13.1089 19.0089 13.9171 19.0089 14.9141V15.0039C19.0089 16.0008 18.2007 16.809 17.2038 16.809C16.2068 16.809 15.3986 16.0008 15.3986 15.0039V14.9141Z" fill="#647499"/>
<path d="M28.937 1.96384C28.937 0.966894 29.7452 0.158713 30.7421 0.158713C31.7391 0.158713 32.5473 0.966895 32.5473 1.96384V2.05365C32.5473 3.0506 31.7391 3.85878 30.7421 3.85878C29.7452 3.85878 28.937 3.05059 28.937 2.05365V1.96384Z" fill="#647499"/>
<path d="M18.4801 5.12046C17.7752 4.39797 17.7752 3.2266 18.4801 2.50412L20.3947 0.541862C21.0997 -0.18062 22.2426 -0.180621 22.9476 0.541861C23.6525 1.26434 23.6525 2.43572 22.9476 3.1582L21.0329 5.12045C20.328 5.84294 19.1851 5.84294 18.4801 5.12046Z" fill="#647499"/>
<path d="M25.7006 16.2206C24.9957 15.4982 24.9957 14.3268 25.7006 13.6043L27.6153 11.6421C28.3202 10.9196 29.4632 10.9196 30.1681 11.642C30.873 12.3645 30.873 13.5359 30.1681 14.2584L28.2534 16.2206C27.5485 16.9431 26.4056 16.9431 25.7006 16.2206Z" fill="#647499"/>
<path d="M19.3827 13.4456C18.6778 12.7231 18.6778 11.5517 19.3827 10.8293L25.6554 4.40053C26.3603 3.67805 27.5033 3.67805 28.2082 4.40054C28.9132 5.12302 28.9132 6.29439 28.2082 7.01688L21.9355 13.4456C21.2306 14.1681 20.0877 14.1681 19.3827 13.4456Z" fill="#647499"/>
<path d="M11.757 17.5611L9.00289 20.3837H13.4965C13.8884 20.3837 14.2642 20.2241 14.5413 19.9401C15.1184 19.3487 15.1184 18.3898 14.5413 17.7984L14.3098 17.5611C13.6048 16.8386 12.4619 16.8386 11.757 17.5611Z" fill="#647499"/>
<path d="M6.52883 16.4441C5.82387 15.7216 5.82387 14.5503 6.52883 13.8278L11.3692 8.86701C12.0741 8.14453 13.2171 8.14453 13.922 8.86701C14.627 9.58949 14.627 10.7609 13.922 11.4834L9.08162 16.4441C8.37673 17.1666 7.23378 17.1666 6.52883 16.4441Z" fill="#647499"/>
<path d="M31.116 10.894C30.411 10.1715 30.411 9.00016 31.116 8.27767L34.9185 4.38056C35.6234 3.65807 36.7664 3.65807 37.4713 4.38055C38.1763 5.10304 38.1763 6.27441 37.4713 6.99689L33.6688 10.894C32.9639 11.6165 31.8209 11.6165 31.116 10.894Z" fill="#647499"/>
<path fill-rule="evenodd" clip-rule="evenodd" d="M0.859131 27.7273V35H2.61694V32.7415H3.81013C4.36647 32.7415 4.84706 32.6385 5.25189 32.4325C5.65672 32.2266 5.96803 31.9366 6.18584 31.5625C6.40601 31.1861 6.51609 30.7469 6.51609 30.245C6.51609 29.7455 6.40837 29.3075 6.19294 28.9311C5.9775 28.5523 5.67092 28.2576 5.27319 28.0469C4.87783 27.8338 4.4079 27.7273 3.86339 27.7273H0.859131ZM2.61694 31.3565H3.48342C3.74857 31.3565 3.96993 31.3104 4.14748 31.218C4.32741 31.1257 4.46353 30.9967 4.55586 30.831C4.64819 30.6629 4.69436 30.4676 4.69436 30.245C4.69436 30.0201 4.64819 29.826 4.55586 29.6626C4.46353 29.4969 4.32741 29.3691 4.14748 29.2791C3.96756 29.1892 3.7462 29.1442 3.48342 29.1442H2.61694V31.3565Z" fill="#647499"/>
<path fill-rule="evenodd" clip-rule="evenodd" d="M7.79805 34.9183C8.06794 35.0343 8.37689 35.0923 8.7249 35.0923C8.97821 35.0923 9.20549 35.0604 9.40672 34.9964C9.61031 34.9325 9.78669 34.8366 9.93584 34.7088C10.0874 34.581 10.2116 34.4247 10.3087 34.2401H10.3513V35H11.9848V31.2926C11.9848 31.0038 11.9245 30.7469 11.8037 30.522C11.6854 30.2971 11.5173 30.1077 11.2995 29.9538C11.0817 29.7976 10.826 29.6792 10.5324 29.5987C10.2389 29.5159 9.91808 29.4744 9.57007 29.4744C9.08238 29.4744 8.66453 29.5502 8.31652 29.7017C7.97087 29.8509 7.69862 30.0568 7.49976 30.3196C7.30326 30.58 7.18134 30.8759 7.13399 31.2074L8.73555 31.2642C8.77343 31.089 8.86221 30.9517 9.00189 30.8523C9.14156 30.7528 9.32622 30.7031 9.55586 30.7031C9.76893 30.7031 9.9382 30.7528 10.0637 30.8523C10.1891 30.9517 10.2519 31.0926 10.2519 31.2749V31.2926C10.2519 31.4039 10.2081 31.4903 10.1205 31.5518C10.0353 31.611 9.89796 31.6572 9.70856 31.6903C9.51917 31.7211 9.26941 31.7507 8.95927 31.7791C8.68228 31.8028 8.42187 31.849 8.17802 31.9176C7.93418 31.9839 7.71874 32.0821 7.53172 32.2124C7.34469 32.3426 7.19791 32.5118 7.09138 32.7202C6.98484 32.9285 6.93157 33.1842 6.93157 33.4872C6.93157 33.8471 7.00852 34.1465 7.1624 34.3857C7.31865 34.6224 7.53053 34.7999 7.79805 34.9183ZM9.76538 33.8423C9.61623 33.9181 9.44815 33.956 9.26112 33.956C9.06226 33.956 8.89772 33.9086 8.76751 33.8139C8.63967 33.7192 8.57575 33.5819 8.57575 33.402C8.57575 33.2836 8.60534 33.1818 8.66453 33.0966C8.72608 33.009 8.81368 32.938 8.92731 32.8835C9.04332 32.8291 9.18299 32.7888 9.34635 32.7628C9.42684 32.7509 9.51088 32.7379 9.59848 32.7237C9.68607 32.7095 9.7713 32.6929 9.85416 32.674C9.93702 32.6551 10.0128 32.6349 10.0814 32.6136C10.1525 32.5923 10.2128 32.5687 10.2625 32.5426V33.0611C10.2625 33.2386 10.2176 33.3949 10.1276 33.5298C10.0376 33.6624 9.9169 33.7666 9.76538 33.8423Z" fill="#647499"/>
<path d="M16.1255 30.8239V29.5455H15.1418V28.2386H13.4053V29.5455H12.6844V30.8239H13.4053V33.4766C13.4006 33.8459 13.474 34.1525 13.6255 34.3963C13.7793 34.6401 14.0007 34.8201 14.2895 34.9361C14.5807 35.0497 14.9299 35.0971 15.3371 35.0781C15.5454 35.0687 15.7242 35.0462 15.8733 35.0107C16.0249 34.9751 16.142 34.9455 16.2249 34.9219L15.9621 33.6683C15.9242 33.6778 15.8674 33.6896 15.7917 33.7038C15.7183 33.7157 15.6484 33.7216 15.5821 33.7216C15.4898 33.7216 15.4105 33.7086 15.3442 33.6825C15.2779 33.6541 15.227 33.608 15.1915 33.544C15.1584 33.4777 15.1418 33.3913 15.1418 33.2848V30.8239H16.1255Z" fill="#647499"/>
<path d="M20.0903 30.8239V29.5455H19.1066V28.2386H17.3701V29.5455H16.6493V30.8239H17.3701V33.4766C17.3654 33.8459 17.4388 34.1525 17.5903 34.3963C17.7442 34.6401 17.9655 34.8201 18.2544 34.9361C18.5456 35.0497 18.8948 35.0971 19.302 35.0781C19.5103 35.0687 19.689 35.0462 19.8382 35.0107C19.9897 34.9751 20.1069 34.9455 20.1897 34.9219L19.927 33.6683C19.8891 33.6778 19.8323 33.6896 19.7565 33.7038C19.6831 33.7157 19.6133 33.7216 19.547 33.7216C19.4547 33.7216 19.3753 33.7086 19.3091 33.6825C19.2428 33.6541 19.1919 33.608 19.1564 33.544C19.1232 33.4777 19.1066 33.3913 19.1066 33.2848V30.8239H20.0903Z" fill="#647499"/>
<path fill-rule="evenodd" clip-rule="evenodd" d="M21.9902 34.7656C22.4045 34.9905 22.8969 35.103 23.4674 35.103C23.9433 35.103 24.3623 35.0308 24.7245 34.8864C25.0868 34.7396 25.3791 34.5348 25.6017 34.272C25.8266 34.0069 25.9722 33.6955 26.0385 33.3381L24.444 33.2919C24.399 33.4126 24.3316 33.5144 24.2416 33.5973C24.1516 33.6802 24.0439 33.7429 23.9184 33.7855C23.793 33.8281 23.6533 33.8494 23.4994 33.8494C23.2769 33.8494 23.0851 33.8033 22.9241 33.7109C22.7631 33.6186 22.6388 33.4896 22.5512 33.3239C22.4637 33.1558 22.4199 32.9605 22.4199 32.7379V32.6918H26.0562V32.2585C26.0562 31.8111 25.9911 31.4145 25.8609 31.0689C25.7307 30.7209 25.5484 30.4285 25.314 30.1918C25.0797 29.955 24.8015 29.7763 24.4795 29.6555C24.1575 29.5348 23.8024 29.4744 23.4142 29.4744C22.8649 29.4744 22.3879 29.5928 21.9831 29.8295C21.5782 30.0639 21.2646 30.393 21.042 30.8168C20.8195 31.2382 20.7082 31.7306 20.7082 32.294C20.7082 32.8741 20.8183 33.3748 21.0385 33.7962C21.261 34.2152 21.5782 34.5383 21.9902 34.7656ZM22.4209 31.6832C22.4295 31.5077 22.4765 31.3502 22.5619 31.2109C22.6519 31.0618 22.7738 30.9446 22.9277 30.8594C23.0816 30.7718 23.2556 30.728 23.4497 30.728C23.6414 30.728 23.8107 30.7694 23.9575 30.8523C24.1066 30.9328 24.2238 31.0452 24.3091 31.1896C24.3943 31.334 24.4381 31.4986 24.4405 31.6832H22.4209Z" fill="#647499"/>
<path d="M26.9431 29.5455V35H28.6796V32.0383C28.6796 31.8205 28.7258 31.6312 28.8181 31.4702C28.9128 31.3068 29.0418 31.1802 29.2052 31.0902C29.3709 30.9979 29.5568 30.9517 29.7627 30.9517C29.8669 30.9517 29.9853 30.96 30.1178 30.9766C30.2528 30.9931 30.3617 31.0156 30.4445 31.044V29.5348C30.3711 29.5135 30.2918 29.4981 30.2066 29.4886C30.1214 29.4768 30.0385 29.4709 29.958 29.4709C29.6597 29.4709 29.3981 29.5597 29.1732 29.7372C28.9483 29.9124 28.7862 30.1799 28.6867 30.5398H28.6299V29.5455H26.9431Z" fill="#647499"/>
<path d="M32.8886 35V31.8892C32.891 31.6809 32.9289 31.5033 33.0022 31.3565C33.078 31.2098 33.1845 31.0973 33.3218 31.0192C33.4615 30.9387 33.6225 30.8984 33.8048 30.8984C34.0794 30.8984 34.2937 30.9837 34.4476 31.1541C34.6038 31.3246 34.6807 31.5613 34.6784 31.8643V35H36.4149V31.5234C36.4173 31.1139 36.3391 30.7564 36.1805 30.451C36.0243 30.1432 35.8041 29.9041 35.52 29.7337C35.2383 29.5608 34.9057 29.4744 34.5221 29.4744C34.1197 29.4744 33.7728 29.5703 33.4816 29.7621C33.1905 29.9515 32.9845 30.2131 32.8637 30.5469H32.8034V29.5455H31.1521V35H32.8886Z" fill="#647499"/>
<path d="M40.6576 31.2536L42.2521 31.2109C42.2071 30.6712 41.9715 30.2474 41.5454 29.9396C41.1193 29.6295 40.5369 29.4744 39.7982 29.4744C39.3058 29.4744 38.8785 29.5431 38.5163 29.6804C38.1541 29.8177 37.8747 30.0166 37.6782 30.277C37.4817 30.535 37.3846 30.8464 37.387 31.2109C37.3846 31.6276 37.5172 31.9709 37.7847 32.2408C38.0523 32.5083 38.4594 32.6918 39.0063 32.7912L39.958 32.9723C40.1853 33.0149 40.3522 33.0741 40.4587 33.1499C40.5653 33.2232 40.6197 33.3215 40.6221 33.4446C40.6197 33.5819 40.5487 33.692 40.409 33.7749C40.2693 33.8577 40.0882 33.8991 39.8657 33.8991C39.6195 33.8991 39.4171 33.8471 39.2585 33.7429C39.0998 33.6387 39.0016 33.4872 38.9637 33.2883L37.2485 33.331C37.3124 33.8707 37.5681 34.3016 38.0156 34.6236C38.4654 34.9432 39.0797 35.103 39.8586 35.103C40.3463 35.103 40.7795 35.0272 41.1583 34.8757C41.5371 34.7218 41.8354 34.5064 42.0532 34.2294C42.2734 33.9524 42.3846 33.6269 42.387 33.2528C42.3846 32.8551 42.2497 32.5355 41.9822 32.294C41.717 32.0526 41.3122 31.8797 40.7677 31.7756L39.7166 31.5767C39.4869 31.5294 39.3271 31.4666 39.2371 31.3885C39.1496 31.3104 39.1069 31.218 39.1093 31.1115C39.1069 30.9742 39.1756 30.8653 39.3153 30.7848C39.4573 30.7043 39.629 30.6641 39.8302 30.6641C39.9841 30.6641 40.119 30.6901 40.235 30.7422C40.3534 30.7919 40.4493 30.8617 40.5227 30.9517C40.5961 31.0393 40.641 31.1399 40.6576 31.2536Z" fill="#647499"/>
</svg>
