<svg width="26" height="26" viewBox="0 0 26 26" fill="none" xmlns="http://www.w3.org/2000/svg">
<g transform="rotate(0 0 0) scale(0.9 0.9)" transform-origin="13 13">
<path d="M0.400005 13.6928C-0.133329 13.3848 -0.133329 12.615 0.400005 12.3071L7 8.49661C7.53334 8.18869 8.2 8.57359 8.2 9.18943V16.8105C8.2 17.4263 7.53334 17.8112 7 17.5033L0.400005 13.6928Z" fill="#6885CC"/>
<path d="M1.21432 13.1733C1.08099 13.0964 1.08099 12.9039 1.21432 12.8269L7.04289 9.4618C7.17623 9.38482 7.34289 9.48105 7.34289 9.63501L7.34289 16.3653C7.34289 16.5192 7.17623 16.6154 7.04289 16.5385L1.21432 13.1733Z" fill="white"/>
<path d="M25.6 12.3071C26.1333 12.615 26.1333 13.3848 25.6 13.6928L19 17.5033C18.4666 17.8112 17.8 17.4263 17.8 16.8104L17.8 9.18943C17.8 8.57359 18.4666 8.18868 19 8.4966L25.6 12.3071Z" fill="#6885CC"/>
<path d="M24.7857 12.8265C24.919 12.9035 24.919 13.096 24.7857 13.1729L18.9571 16.5381C18.8238 16.6151 18.6571 16.5188 18.6571 16.3649L18.6571 9.63462C18.6571 9.48066 18.8238 9.38443 18.9571 9.46141L24.7857 12.8265Z" fill="white"/>
<path d="M7.99993 14.9999V10.9999L17.9999 10.9999V14.9999L7.99993 14.9999Z" fill="#6885CC"/>
<path d="M6.99993 13.9999V11.9999L18.9999 11.9999V13.9999L6.99993 13.9999Z" fill="white"/>
</g>
</svg>
