<svg width="22" height="22" viewBox="0 0 22 22" fill="none" xmlns="http://www.w3.org/2000/svg">
<g transform="rotate(0 0 0) scale(0.9 0.9)" transform-origin="11 11">
<path d="M5.22599 21.661C4.96521 22.1127 4.31328 22.1127 4.05251 21.661L0.0920152 14.8013C-0.168758 14.3496 0.157209 13.785 0.678755 13.785H8.59974C9.12128 13.785 9.44725 14.3496 9.18648 14.8013L5.22599 21.661Z" fill="#6885CC"/>
<path d="M4.81984 20.7294C4.75465 20.8424 4.59166 20.8424 4.52647 20.7294L1.15272 14.886C1.08752 14.7731 1.16902 14.6319 1.2994 14.6319L8.04691 14.6319C8.17729 14.6319 8.25879 14.7731 8.19359 14.886L4.81984 20.7294Z" fill="white"/>
<path d="M21.6615 4.05199C22.1132 4.31276 22.1132 4.96469 21.6615 5.22546L14.8017 9.18591C14.35 9.44668 13.7854 9.12072 13.7854 8.59918V0.678268C13.7854 0.156727 14.35 -0.169236 14.8017 0.0915348L21.6615 4.05199Z" fill="#6885CC"/>
<path d="M20.7299 4.49204C20.8428 4.55723 20.8428 4.72021 20.7299 4.78541L14.8864 8.15913C14.7735 8.22432 14.6323 8.14283 14.6323 8.01244V1.265C14.6323 1.13462 14.7735 1.05313 14.8864 1.11832L20.7299 4.49204Z" fill="white"/>
<path d="M14.3784 2.52153C8.76577 2.52153 2.52203 8.5957 2.52203 14.2083H6.75657C6.75657 10.8208 10.5674 6.75592 14.3784 6.75592V2.52153Z" fill="#6885CC"/>
<path d="M14.8019 3.36841C8.87367 3.36841 3.36892 8.87311 3.36892 14.8013H5.90957C5.90957 9.71999 10.5673 5.90904 14.8019 5.90904V3.36841Z" fill="white"/>
</g>
</svg>
