<svg width="26" height="26" viewBox="0 0 26 26" fill="none" xmlns="http://www.w3.org/2000/svg">
<g transform="rotate(0 0 0) scale(0.9 0.9)" transform-origin="13 13">
<path d="M22.1267 2.89348C22.7216 2.73409 23.2659 3.27842 23.1065 3.87328L21.1341 11.2346C20.9747 11.8295 20.2311 12.0287 19.7956 11.5933L14.4068 6.20437C13.9713 5.76891 14.1705 5.02534 14.7654 4.86595L22.1267 2.89348Z" fill="#6885CC"/>
<path d="M21.9182 3.83658C22.0669 3.79673 22.203 3.93281 22.1632 4.08153L20.4213 10.5825C20.3814 10.7312 20.1955 10.781 20.0866 10.6721L15.3276 5.9131C15.2188 5.80424 15.2686 5.61834 15.4173 5.5785L21.9182 3.83658Z" fill="white"/>
<path d="M3.87326 23.1066C3.2784 23.266 2.73407 22.7216 2.89346 22.1268L4.86593 14.7654C5.02532 14.1706 5.76889 13.9713 6.20435 14.4068L11.5932 19.7957C12.0287 20.2311 11.8295 20.9747 11.2346 21.1341L3.87326 23.1066Z" fill="#6885CC"/>
<path d="M4.08178 22.1635C3.93307 22.2033 3.79698 22.0672 3.83683 21.9185L5.57875 15.4176C5.6186 15.2689 5.80449 15.2191 5.91336 15.3279L10.6724 20.0869C10.7812 20.1958 10.7314 20.3817 10.5827 20.4216L4.08178 22.1635Z" fill="white"/>
<path d="M15.8285 7.34313L18.6569 10.1716L10.1716 18.6568L7.34319 15.8284L15.8285 7.34313Z" fill="#6885CC"/>
<path d="M17.2427 7.34313L18.6569 8.75734L8.7574 18.6568L7.34319 17.2426L17.2427 7.34313Z" fill="white"/>
</g>
</svg>
