<svg width="26" height="26" viewBox="0 0 26 26" fill="none" xmlns="http://www.w3.org/2000/svg">
<g transform="rotate(0 0 0) scale(0.9 0.9)" transform-origin="13 13">
<path d="M2.89321 3.87335C2.73382 3.27849 3.27815 2.73416 3.87301 2.89355L11.2343 4.86602C11.8292 5.02541 12.0284 5.76898 11.593 6.20445L6.2041 11.5933C5.76864 12.0288 5.02507 11.8295 4.86568 11.2347L2.89321 3.87335Z" fill="#6885CC"/>
<path d="M3.83631 4.08187C3.79646 3.93316 3.93254 3.79708 4.08126 3.83692L10.5822 5.57884C10.7309 5.61869 10.7807 5.80458 10.6718 5.91345L5.91283 10.6725C5.80397 10.7813 5.61807 10.7315 5.57823 10.5828L3.83631 4.08187Z" fill="white"/>
<path d="M23.1063 22.1265C23.2657 22.7213 22.7214 23.2656 22.1265 23.1063L14.7652 21.1338C14.1703 20.9744 13.9711 20.2308 14.4065 19.7954L19.7954 14.4065C20.2309 13.971 20.9744 14.1703 21.1338 14.7651L23.1063 22.1265Z" fill="#6885CC"/>
<path d="M22.1632 21.9179C22.2031 22.0666 22.067 22.2027 21.9183 22.1629L15.4173 20.421C15.2686 20.3811 15.2188 20.1952 15.3277 20.0864L20.0867 15.3274C20.1955 15.2185 20.3814 15.2683 20.4213 15.417L22.1632 21.9179Z" fill="white"/>
<path d="M7.34285 10.1716L10.1713 7.34318L18.6566 15.8285L15.8281 18.6569L7.34285 10.1716Z" fill="#6885CC"/>
<path d="M7.34285 8.7574L8.75706 7.34318L18.6566 17.2427L17.2423 18.6569L7.34285 8.7574Z" fill="white"/>
</g>
</svg>
