<svg width="26" height="26" viewBox="0 0 26 26" fill="none" xmlns="http://www.w3.org/2000/svg">
<g transform="rotate(0 0 0) scale(0.9 0.9)" transform-origin="13 13">
<path d="M12.3072 0.399759C12.6151 -0.133575 13.3849 -0.133575 13.6928 0.399759L17.5033 6.99976C17.8113 7.53309 17.4263 8.19976 16.8105 8.19976H9.18949C8.57365 8.19976 8.18875 7.53309 8.49667 6.99976L12.3072 0.399759Z" fill="#6885CC"/>
<path d="M12.8266 1.21408C12.9036 1.08074 13.096 1.08074 13.173 1.21408L16.5381 7.04265C16.6151 7.17598 16.5189 7.34265 16.3649 7.34265H9.63468C9.48072 7.34265 9.38449 7.17598 9.46147 7.04265L12.8266 1.21408Z" fill="white"/>
<path d="M13.6928 25.5997C13.3849 26.133 12.6151 26.133 12.3072 25.5997L8.49667 18.9997C8.18875 18.4663 8.57365 17.7997 9.18949 17.7997H16.8105C17.4264 17.7997 17.8113 18.4663 17.5033 18.9997L13.6928 25.5997Z" fill="#6885CC"/>
<path d="M13.1734 24.7854C13.0964 24.9187 12.904 24.9187 12.827 24.7854L9.46186 18.9568C9.38488 18.8235 9.48111 18.6568 9.63507 18.6568H16.3653C16.5193 18.6568 16.6155 18.8235 16.5385 18.9568L13.1734 24.7854Z" fill="white"/>
<path d="M11 7.99968H15V17.9997H11V7.99968Z" fill="#6885CC"/>
<path d="M12 6.99968H14V18.9997H12V6.99968Z" fill="white"/>
</g>
</svg>
