<svg width="37" height="43" viewBox="0 0 37 43" fill="none" xmlns="http://www.w3.org/2000/svg">
<path fill-rule="evenodd" clip-rule="evenodd" d="M24 0C21.7909 0 20 1.79086 20 4C20 4.61251 20.1377 5.19287 20.3838 5.71182L14.3354 10.7522C13.6782 10.2788 12.8717 10 12 10C9.79086 10 8 11.7909 8 14C8 16.2091 9.79086 18 12 18C12.9453 18 13.8139 17.6721 14.4985 17.1239L20.3007 21.4756C20.1069 21.9454 20 22.4602 20 23C20 25.2091 21.7909 27 24 27C26.2091 27 28 25.2091 28 23C28 20.7909 26.2091 19 24 19C23.0547 19 22.1861 19.3279 21.5015 19.8761L15.6993 15.5244C15.8931 15.0546 16 14.5398 16 14C16 13.3875 15.8623 12.8071 15.6162 12.2882L21.6646 7.24784C22.3218 7.72117 23.1283 8 24 8C26.2091 8 28 6.20914 28 4C28 1.79086 26.2091 0 24 0Z" fill="#647499"/>
<path d="M4.95419 35.9077C4.93052 35.6473 4.82517 35.4448 4.63814 35.3004C4.45348 35.1536 4.18951 35.0803 3.84624 35.0803C3.61896 35.0803 3.42957 35.1098 3.27805 35.169C3.12654 35.2282 3.0129 35.3099 2.93714 35.4141C2.86139 35.5159 2.82232 35.633 2.81996 35.7656C2.81522 35.8745 2.83653 35.9704 2.88388 36.0533C2.93359 36.1361 3.00462 36.2095 3.09695 36.2734C3.19164 36.335 3.30528 36.3894 3.43786 36.4368C3.57043 36.4841 3.71958 36.5256 3.8853 36.5611L4.5103 36.7031C4.87015 36.7812 5.18738 36.8854 5.462 37.0156C5.73899 37.1458 5.971 37.3009 6.15803 37.4808C6.34742 37.6607 6.49065 37.8679 6.58771 38.1023C6.68478 38.3366 6.73449 38.5994 6.73686 38.8906C6.73449 39.3499 6.61849 39.7441 6.38885 40.0732C6.15921 40.4022 5.82895 40.6544 5.39808 40.8295C4.96958 41.0047 4.4523 41.0923 3.84624 41.0923C3.23781 41.0923 2.7075 41.0012 2.25533 40.8189C1.80315 40.6366 1.45159 40.3596 1.20064 39.9879C0.949692 39.6162 0.820668 39.1463 0.813565 38.5781H2.4968C2.51101 38.8125 2.57375 39.0078 2.68501 39.1641C2.79628 39.3203 2.94898 39.4387 3.14311 39.5192C3.33961 39.5997 3.56688 39.6399 3.82493 39.6399C4.06167 39.6399 4.2629 39.608 4.42862 39.544C4.59671 39.4801 4.72573 39.3913 4.8157 39.2777C4.90566 39.1641 4.95182 39.0339 4.95419 38.8871C4.95182 38.7498 4.90921 38.6326 4.82635 38.5355C4.74349 38.4361 4.61565 38.3509 4.44283 38.2798C4.27237 38.2064 4.05457 38.139 3.78942 38.0774L3.02947 37.8999C2.39974 37.7554 1.90376 37.5223 1.54155 37.2003C1.17933 36.8759 0.999408 36.438 1.00178 35.8864C0.999408 35.4366 1.12015 35.0424 1.36399 34.7038C1.60784 34.3653 1.94519 34.1013 2.37607 33.9119C2.80694 33.7225 3.29818 33.6278 3.84979 33.6278C4.41323 33.6278 4.90211 33.7237 5.31641 33.9155C5.73307 34.1049 6.05623 34.3712 6.28587 34.7145C6.51551 35.0578 6.63269 35.4555 6.63743 35.9077H4.95419ZM10.1708 41.103C9.59789 41.103 9.10547 40.9858 8.69354 40.7514C8.28397 40.5147 7.96792 40.1856 7.74538 39.7642C7.52521 39.3404 7.41513 38.8492 7.41513 38.2905C7.41513 37.7294 7.52521 37.2382 7.74538 36.8168C7.96792 36.393 8.28397 36.0639 8.69354 35.8295C9.10547 35.5928 9.59789 35.4744 10.1708 35.4744C10.7437 35.4744 11.235 35.5928 11.6445 35.8295C12.0565 36.0639 12.3725 36.393 12.5927 36.8168C12.8152 37.2382 12.9265 37.7294 12.9265 38.2905C12.9265 38.8492 12.8152 39.3404 12.5927 39.7642C12.3725 40.1856 12.0565 40.5147 11.6445 40.7514C11.235 40.9858 10.7437 41.103 10.1708 41.103ZM10.1815 39.7926C10.3898 39.7926 10.5662 39.7287 10.7106 39.6009C10.855 39.473 10.9651 39.2955 11.0408 39.0682C11.119 38.8409 11.158 38.5781 11.158 38.2798C11.158 37.9768 11.119 37.7116 11.0408 37.4844C10.9651 37.2571 10.855 37.0795 10.7106 36.9517C10.5662 36.8239 10.3898 36.7599 10.1815 36.7599C9.96603 36.7599 9.78374 36.8239 9.63459 36.9517C9.48781 37.0795 9.37536 37.2571 9.29723 37.4844C9.22147 37.7116 9.18359 37.9768 9.18359 38.2798C9.18359 38.5781 9.22147 38.8409 9.29723 39.0682C9.37536 39.2955 9.48781 39.473 9.63459 39.6009C9.78374 39.7287 9.96603 39.7926 10.1815 39.7926ZM16.3622 41.103C15.7869 41.103 15.2933 40.9846 14.8814 40.7479C14.4718 40.5111 14.157 40.1821 13.9368 39.7607C13.7166 39.3369 13.6065 38.8468 13.6065 38.2905C13.6065 37.7318 13.7166 37.2417 13.9368 36.8203C14.1593 36.3965 14.4754 36.0663 14.8849 35.8295C15.2969 35.5928 15.7881 35.4744 16.3587 35.4744C16.8629 35.4744 17.3021 35.5656 17.6761 35.7479C18.0526 35.9302 18.3461 36.1882 18.5568 36.522C18.7699 36.8535 18.8823 37.2429 18.8942 37.6903H17.2713C17.2382 37.411 17.1435 37.192 16.9872 37.0334C16.8333 36.8748 16.6321 36.7955 16.3835 36.7955C16.1823 36.7955 16.0059 36.8523 15.8544 36.9659C15.7029 37.0772 15.5845 37.2429 15.4993 37.4631C15.4164 37.6809 15.375 37.9508 15.375 38.2727C15.375 38.5947 15.4164 38.867 15.4993 39.0895C15.5845 39.3097 15.7029 39.4766 15.8544 39.5902C16.0059 39.7015 16.1823 39.7571 16.3835 39.7571C16.5445 39.7571 16.6866 39.7228 16.8097 39.6541C16.9351 39.5855 17.0381 39.4848 17.1186 39.3523C17.1991 39.2173 17.25 39.054 17.2713 38.8622H18.8942C18.8776 39.312 18.7652 39.705 18.5568 40.0412C18.3509 40.3774 18.0608 40.639 17.6868 40.826C17.3151 41.0107 16.8736 41.103 16.3622 41.103ZM19.7828 41V35.5455H21.5194V41H19.7828ZM20.6529 34.9098C20.409 34.9098 20.1995 34.8293 20.0243 34.6683C19.8491 34.505 19.7615 34.3085 19.7615 34.0788C19.7615 33.8516 19.8491 33.6574 20.0243 33.4964C20.1995 33.3331 20.409 33.2514 20.6529 33.2514C20.8991 33.2514 21.1086 33.3331 21.2814 33.4964C21.4566 33.6574 21.5442 33.8516 21.5442 34.0788C21.5442 34.3085 21.4566 34.505 21.2814 34.6683C21.1086 34.8293 20.8991 34.9098 20.6529 34.9098ZM24.1623 41.0923C23.8143 41.0923 23.5053 41.0343 23.2354 40.9183C22.9679 40.8 22.756 40.6224 22.5998 40.3857C22.4459 40.1465 22.369 39.8471 22.369 39.4872C22.369 39.1842 22.4222 38.9285 22.5288 38.7202C22.6353 38.5118 22.7821 38.3426 22.9691 38.2124C23.1561 38.0821 23.3716 37.9839 23.6154 37.9176C23.8593 37.849 24.1197 37.8028 24.3967 37.7791C24.7068 37.7507 24.9566 37.7211 25.146 37.6903C25.3353 37.6572 25.4727 37.611 25.5579 37.5518C25.6455 37.4903 25.6893 37.4039 25.6893 37.2926V37.2749C25.6893 37.0926 25.6265 36.9517 25.5011 36.8523C25.3756 36.7528 25.2063 36.7031 24.9933 36.7031C24.7636 36.7031 24.579 36.7528 24.4393 36.8523C24.2996 36.9517 24.2108 37.089 24.1729 37.2642L22.5714 37.2074C22.6187 36.8759 22.7406 36.58 22.9371 36.3196C23.136 36.0568 23.4083 35.8509 23.7539 35.7017C24.1019 35.5502 24.5198 35.4744 25.0075 35.4744C25.3555 35.4744 25.6763 35.5159 25.9698 35.5987C26.2634 35.6792 26.5191 35.7976 26.7369 35.9538C26.9547 36.1077 27.1228 36.2971 27.2411 36.522C27.3619 36.7469 27.4222 37.0038 27.4222 37.2926V41H25.7887V40.2401H25.7461C25.649 40.4247 25.5247 40.581 25.3732 40.7088C25.2241 40.8366 25.0477 40.9325 24.8441 40.9964C24.6429 41.0604 24.4156 41.0923 24.1623 41.0923ZM24.6985 39.956C24.8855 39.956 25.0536 39.9181 25.2028 39.8423C25.3543 39.7666 25.475 39.6624 25.565 39.5298C25.6549 39.3949 25.6999 39.2386 25.6999 39.0611V38.5426C25.6502 38.5687 25.5898 38.5923 25.5188 38.6136C25.4502 38.6349 25.3744 38.6551 25.2915 38.674C25.2087 38.6929 25.1235 38.7095 25.0359 38.7237C24.9483 38.7379 24.8642 38.7509 24.7837 38.7628C24.6204 38.7888 24.4807 38.8291 24.3647 38.8835C24.2511 38.938 24.1635 39.009 24.1019 39.0966C24.0427 39.1818 24.0131 39.2836 24.0131 39.402C24.0131 39.5819 24.0771 39.7192 24.2049 39.8139C24.3351 39.9086 24.4996 39.956 24.6985 39.956ZM30.2205 33.7273V41H28.484V33.7273H30.2205ZM36.0879 37.2109L34.4934 37.2536C34.4769 37.1399 34.4319 37.0393 34.3585 36.9517C34.2851 36.8617 34.1892 36.7919 34.0708 36.7422C33.9548 36.6901 33.8199 36.6641 33.666 36.6641C33.4648 36.6641 33.2931 36.7043 33.1511 36.7848C33.0114 36.8653 32.9428 36.9742 32.9451 37.1115C32.9428 37.218 32.9854 37.3104 33.073 37.3885C33.1629 37.4666 33.3227 37.5294 33.5524 37.5767L34.6035 37.7756C35.148 37.8797 35.5529 38.0526 35.818 38.294C36.0855 38.5355 36.2205 38.8551 36.2228 39.2528C36.2205 39.6269 36.1092 39.9524 35.889 40.2294C35.6712 40.5064 35.3729 40.7218 34.9941 40.8757C34.6154 41.0272 34.1821 41.103 33.6944 41.103C32.9155 41.103 32.3012 40.9432 31.8514 40.6236C31.4039 40.3016 31.1483 39.8707 31.0843 39.331L32.7995 39.2884C32.8374 39.4872 32.9357 39.6387 33.0943 39.7429C33.2529 39.8471 33.4553 39.8991 33.7015 39.8991C33.9241 39.8991 34.1052 39.8577 34.2449 39.7749C34.3845 39.692 34.4556 39.5819 34.4579 39.4446C34.4556 39.3215 34.4011 39.2232 34.2946 39.1499C34.188 39.0741 34.0211 39.0149 33.7939 38.9723L32.8422 38.7912C32.2953 38.6918 31.8881 38.5083 31.6206 38.2408C31.353 37.9709 31.2205 37.6276 31.2228 37.2109C31.2205 36.8464 31.3175 36.535 31.514 36.277C31.7105 36.0166 31.9899 35.8177 32.3521 35.6804C32.7143 35.5431 33.1416 35.4744 33.6341 35.4744C34.3727 35.4744 34.9551 35.6295 35.3812 35.9396C35.8074 36.2474 36.0429 36.6712 36.0879 37.2109Z" fill="#647499"/>
</svg>
