<svg width="42" height="43" viewBox="0 0 42 43" fill="none" xmlns="http://www.w3.org/2000/svg">
<path d="M18.3953 12.0465C18.3953 13.1253 17.8123 14 17.093 14C16.3738 14 15.7907 13.1253 15.7907 12.0465C15.7907 10.9676 16.3738 10.093 17.093 10.093C17.8123 10.093 18.3953 10.9676 18.3953 12.0465Z" fill="#647499"/>
<path d="M24.907 14C25.6262 14 26.2093 13.1253 26.2093 12.0465C26.2093 10.9676 25.6262 10.093 24.907 10.093C24.1877 10.093 23.6046 10.9676 23.6046 12.0465C23.6046 13.1253 24.1877 14 24.907 14Z" fill="#647499"/>
<path fill-rule="evenodd" clip-rule="evenodd" d="M6.99991 14C6.99991 6.26802 13.2679 0 20.9999 0C28.7319 0 34.9999 6.26802 34.9999 14C34.9999 14.4718 34.9766 14.9385 34.9309 15.3988L34.8964 15.7462L22.7461 27.8965L22.3987 27.931C21.9384 27.9767 21.4717 28 20.9999 28C13.2679 28 6.99991 21.732 6.99991 14ZM20.9999 1.95349C14.3468 1.95349 8.9534 7.3469 8.9534 14C8.9534 20.3244 13.827 25.5103 20.0233 26.0074C20.0253 24.0696 20.0436 22.6301 20.2058 21.4463C18.8374 21.3004 17.5748 20.7823 16.5113 19.994C16.0779 19.6728 15.987 19.0611 16.3082 18.6277C16.6295 18.1943 17.2412 18.1034 17.6746 18.4247C18.5414 19.0671 19.5722 19.4625 20.6833 19.5259C21.7402 16.7492 23.9696 14.5739 26.7826 13.5896C28.276 13.0671 30.0685 13.0264 33.0074 13.0234C32.5103 6.82704 27.3243 1.95349 20.9999 1.95349ZM32.9021 14.9778C29.9643 14.9846 28.5586 15.0378 27.4279 15.4335C25.0899 16.2516 23.2515 18.09 22.4334 20.428C22.0377 21.5587 21.9845 22.9644 21.9777 25.9022L32.9021 14.9778Z" fill="#647499"/>
<path d="M4.62828 36.3004C4.81531 36.4448 4.92066 36.6473 4.94434 36.9077H6.62757C6.62284 36.4555 6.50565 36.0578 6.27601 35.7145C6.04637 35.3712 5.72322 35.1049 5.30655 34.9155C4.89225 34.7237 4.40338 34.6278 3.83993 34.6278C3.28832 34.6278 2.79708 34.7225 2.36621 34.9119C1.93534 35.1013 1.59798 35.3653 1.35414 35.7038C1.11029 36.0424 0.989554 36.4366 0.991921 36.8864C0.989554 37.438 1.16948 37.8759 1.53169 38.2003C1.89391 38.5223 2.38989 38.7554 3.01962 38.8999L3.77956 39.0774C4.04471 39.139 4.26252 39.2064 4.43297 39.2798C4.60579 39.3509 4.73364 39.4361 4.8165 39.5355C4.89935 39.6326 4.94197 39.7498 4.94434 39.8871C4.94197 40.0339 4.8958 40.1641 4.80584 40.2777C4.71588 40.3913 4.58685 40.4801 4.41877 40.544C4.25305 40.608 4.05182 40.6399 3.81507 40.6399C3.55703 40.6399 3.32975 40.5997 3.13326 40.5192C2.93913 40.4387 2.78643 40.3203 2.67516 40.1641C2.56389 40.0078 2.50115 39.8125 2.48695 39.5781H0.803711C0.810813 40.1463 0.939838 40.6162 1.19078 40.9879C1.44173 41.3596 1.79329 41.6366 2.24547 41.8189C2.69765 42.0012 3.22795 42.0923 3.83638 42.0923C4.44244 42.0923 4.95972 42.0047 5.38823 41.8295C5.8191 41.6544 6.14935 41.4022 6.37899 41.0732C6.60864 40.7441 6.72464 40.3499 6.72701 39.8906C6.72464 39.5994 6.67492 39.3366 6.57786 39.1023C6.48079 38.8679 6.33757 38.6607 6.14817 38.4808C5.96114 38.3009 5.72914 38.1458 5.45215 38.0156C5.17753 37.8854 4.86029 37.7812 4.50044 37.7031L3.87544 37.5611C3.70972 37.5256 3.56058 37.4841 3.428 37.4368C3.29542 37.3894 3.18179 37.335 3.08709 37.2734C2.99476 37.2095 2.92374 37.1361 2.87402 37.0533C2.82667 36.9704 2.80537 36.8745 2.8101 36.7656C2.81247 36.633 2.85153 36.5159 2.92729 36.4141C3.00305 36.3099 3.11668 36.2282 3.2682 36.169C3.41971 36.1098 3.60911 36.0803 3.83638 36.0803C4.17966 36.0803 4.44363 36.1536 4.62828 36.3004Z" fill="#647499"/>
<path d="M10.6936 37.8239V36.5455H9.70996V35.2386H7.97346V36.5455H7.25257V37.8239H7.97346V40.4766C7.96872 40.8459 8.04211 41.1525 8.19363 41.3963C8.34751 41.6402 8.56886 41.8201 8.85769 41.9361C9.14888 42.0497 9.49808 42.0971 9.90527 42.0781C10.1136 42.0687 10.2923 42.0462 10.4415 42.0107C10.593 41.9751 10.7102 41.9455 10.7931 41.9219L10.5303 40.6683C10.4924 40.6778 10.4356 40.6896 10.3598 40.7038C10.2864 40.7157 10.2166 40.7216 10.1503 40.7216C10.058 40.7216 9.97866 40.7086 9.91238 40.6825C9.84609 40.6541 9.79519 40.608 9.75968 40.544C9.72653 40.4777 9.70996 40.3913 9.70996 40.2848V37.8239H10.6936Z" fill="#647499"/>
<path d="M11.5796 36.5455V42H13.3161V36.5455H11.5796Z" fill="#647499"/>
<path d="M11.8211 35.6683C11.9963 35.8293 12.2058 35.9098 12.4497 35.9098C12.6959 35.9098 12.9054 35.8293 13.0782 35.6683C13.2534 35.505 13.341 35.3085 13.341 35.0788C13.341 34.8516 13.2534 34.6574 13.0782 34.4964C12.9054 34.3331 12.6959 34.2514 12.4497 34.2514C12.2058 34.2514 11.9963 34.3331 11.8211 34.4964C11.6459 34.6574 11.5583 34.8516 11.5583 35.0788C11.5583 35.3085 11.6459 35.505 11.8211 35.6683Z" fill="#647499"/>
<path d="M15.4868 41.7479C15.8987 41.9846 16.3923 42.103 16.9676 42.103C17.479 42.103 17.9205 42.0107 18.2922 41.826C18.6662 41.639 18.9562 41.3774 19.1622 41.0412C19.3705 40.705 19.483 40.312 19.4996 39.8622H17.8767C17.8554 40.054 17.8045 40.2173 17.724 40.3523C17.6435 40.4848 17.5405 40.5855 17.415 40.6541C17.2919 40.7228 17.1499 40.7571 16.9889 40.7571C16.7877 40.7571 16.6113 40.7015 16.4598 40.5902C16.3083 40.4766 16.1899 40.3097 16.1047 40.0895C16.0218 39.867 15.9804 39.5947 15.9804 39.2727C15.9804 38.9508 16.0218 38.6809 16.1047 38.4631C16.1899 38.2429 16.3083 38.0772 16.4598 37.9659C16.6113 37.8523 16.7877 37.7955 16.9889 37.7955C17.2375 37.7955 17.4387 37.8748 17.5926 38.0334C17.7488 38.192 17.8435 38.411 17.8767 38.6903H19.4996C19.4877 38.2429 19.3753 37.8535 19.1622 37.522C18.9515 37.1882 18.6579 36.9302 18.2815 36.7479C17.9075 36.5656 17.4683 36.4744 16.964 36.4744C16.3935 36.4744 15.9023 36.5928 15.4903 36.8295C15.0808 37.0663 14.7647 37.3965 14.5422 37.8203C14.322 38.2417 14.2119 38.7318 14.2119 39.2905C14.2119 39.8468 14.322 40.3369 14.5422 40.7607C14.7623 41.1821 15.0772 41.5111 15.4868 41.7479Z" fill="#647499"/>
<path d="M22.1247 40.3626V42H20.3882V34.7273H22.1247V38.4986H22.2029L23.7369 36.5455H25.7043L23.7674 38.9228L25.7824 42H23.776L22.4762 39.9371L22.1247 40.3626Z" fill="#647499"/>
<path fill-rule="evenodd" clip-rule="evenodd" d="M27.1736 41.7656C27.5879 41.9905 28.0803 42.103 28.6508 42.103C29.1267 42.103 29.5457 42.0308 29.9079 41.8864C30.2702 41.7396 30.5625 41.5348 30.7851 41.272C31.01 41.0069 31.1556 40.6955 31.2219 40.3381L29.6274 40.2919C29.5824 40.4126 29.5149 40.5144 29.425 40.5973C29.335 40.6802 29.2273 40.7429 29.1018 40.7855C28.9764 40.8281 28.8367 40.8494 28.6828 40.8494C28.4603 40.8494 28.2685 40.8033 28.1075 40.7109C27.9465 40.6186 27.8222 40.4896 27.7346 40.3239C27.647 40.1558 27.6032 39.9605 27.6032 39.7379V39.6918H31.2396V39.2585C31.2396 38.8111 31.1745 38.4145 31.0443 38.0689C30.9141 37.7209 30.7318 37.4285 30.4974 37.1918C30.2631 36.955 29.9849 36.7763 29.6629 36.6555C29.3409 36.5348 28.9858 36.4744 28.5976 36.4744C28.0483 36.4744 27.5713 36.5928 27.1665 36.8295C26.7616 37.0639 26.4479 37.393 26.2254 37.8168C26.0029 38.2382 25.8916 38.7306 25.8916 39.294C25.8916 39.8741 26.0017 40.3748 26.2219 40.7962C26.4444 41.2152 26.7616 41.5384 27.1736 41.7656ZM27.6043 38.6832C27.6129 38.5077 27.6599 38.3502 27.7453 38.2109C27.8353 38.0618 27.9572 37.9446 28.1111 37.8594C28.2649 37.7718 28.4389 37.728 28.6331 37.728C28.8248 37.728 28.9941 37.7694 29.1409 37.8523C29.29 37.9328 29.4072 38.0452 29.4925 38.1896C29.5777 38.334 29.6215 38.4986 29.6238 38.6832H27.6043Z" fill="#647499"/>
<path d="M33.8133 36.5455H32.1265V42H33.863V39.0384C33.863 38.8205 33.9092 38.6312 34.0015 38.4702C34.0962 38.3068 34.2252 38.1802 34.3886 38.0902C34.5543 37.9979 34.7401 37.9517 34.9461 37.9517C35.0503 37.9517 35.1686 37.96 35.3012 37.9766C35.4362 37.9931 35.5451 38.0156 35.6279 38.044V36.5348C35.5545 36.5135 35.4752 36.4981 35.39 36.4886C35.3048 36.4768 35.2219 36.4709 35.1414 36.4709C34.8431 36.4709 34.5815 36.5597 34.3566 36.7372C34.1317 36.9124 33.9695 37.1799 33.8701 37.5398H33.8133V36.5455Z" fill="#647499"/>
<path d="M39.5031 38.2536L41.0976 38.2109C41.0526 37.6712 40.817 37.2474 40.3909 36.9396C39.9648 36.6295 39.3824 36.4744 38.6437 36.4744C38.1513 36.4744 37.724 36.5431 37.3618 36.6804C36.9996 36.8177 36.7202 37.0166 36.5237 37.277C36.3272 37.535 36.2301 37.8464 36.2325 38.2109C36.2301 38.6276 36.3627 38.9709 36.6302 39.2408C36.8978 39.5083 37.305 39.6918 37.8518 39.7912L38.8035 39.9723C39.0308 40.0149 39.1977 40.0741 39.3042 40.1499C39.4108 40.2232 39.4652 40.3215 39.4676 40.4446C39.4652 40.5819 39.3942 40.692 39.2545 40.7749C39.1148 40.8577 38.9337 40.8991 38.7112 40.8991C38.465 40.8991 38.2626 40.8471 38.104 40.7429C37.9453 40.6387 37.8471 40.4872 37.8092 40.2884L36.094 40.331C36.1579 40.8707 36.4136 41.3016 36.8611 41.6236C37.3109 41.9432 37.9252 42.103 38.7041 42.103C39.1918 42.103 39.625 42.0272 40.0038 41.8757C40.3826 41.7218 40.6809 41.5064 40.8987 41.2294C41.1189 40.9524 41.2301 40.6269 41.2325 40.2528C41.2301 39.8551 41.0952 39.5355 40.8277 39.294C40.5625 39.0526 40.1577 38.8797 39.6132 38.7756L38.5621 38.5767C38.3324 38.5294 38.1726 38.4666 38.0827 38.3885C37.9951 38.3104 37.9524 38.218 37.9548 38.1115C37.9524 37.9742 38.0211 37.8653 38.1608 37.7848C38.3028 37.7043 38.4745 37.6641 38.6757 37.6641C38.8296 37.6641 38.9645 37.6901 39.0805 37.7422C39.1989 37.7919 39.2948 37.8617 39.3682 37.9517C39.4416 38.0393 39.4865 38.1399 39.5031 38.2536Z" fill="#647499"/>
</svg>
