<svg width="36" height="44" viewBox="0 0 36 44" fill="none" xmlns="http://www.w3.org/2000/svg">
<path d="M4.48153 36.9077C4.45786 36.6473 4.35251 36.4448 4.16548 36.3004C3.98082 36.1536 3.71686 36.0803 3.37358 36.0803C3.14631 36.0803 2.95691 36.1098 2.8054 36.169C2.65388 36.2282 2.54025 36.3099 2.46449 36.4141C2.38873 36.5159 2.34967 36.633 2.3473 36.7656C2.34257 36.8745 2.36387 36.9704 2.41122 37.0533C2.46094 37.1361 2.53196 37.2095 2.62429 37.2734C2.71899 37.335 2.83262 37.3894 2.9652 37.4368C3.09777 37.4841 3.24692 37.5256 3.41264 37.5611L4.03764 37.7031C4.39749 37.7812 4.71473 37.8854 4.98935 38.0156C5.26634 38.1458 5.49834 38.3009 5.68537 38.4808C5.87476 38.6607 6.01799 38.8679 6.11506 39.1023C6.21212 39.3366 6.26184 39.5994 6.2642 39.8906C6.26184 40.3499 6.14583 40.7441 5.91619 41.0732C5.68655 41.4022 5.3563 41.6544 4.92543 41.8295C4.49692 42.0047 3.97964 42.0923 3.37358 42.0923C2.76515 42.0923 2.23485 42.0012 1.78267 41.8189C1.33049 41.6366 0.97893 41.3596 0.727983 40.9879C0.477036 40.6162 0.348011 40.1463 0.340909 39.5781H2.02415C2.03835 39.8125 2.10109 40.0078 2.21236 40.1641C2.32363 40.3203 2.47633 40.4387 2.67045 40.5192C2.86695 40.5997 3.09422 40.6399 3.35227 40.6399C3.58902 40.6399 3.79025 40.608 3.95597 40.544C4.12405 40.4801 4.25308 40.3913 4.34304 40.2777C4.433 40.1641 4.47917 40.0339 4.48153 39.8871C4.47917 39.7498 4.43655 39.6326 4.35369 39.5355C4.27083 39.4361 4.14299 39.3509 3.97017 39.2798C3.79972 39.2064 3.58191 39.139 3.31676 39.0774L2.55682 38.8999C1.92708 38.7554 1.43111 38.5223 1.06889 38.2003C0.706676 37.8759 0.526752 37.438 0.529119 36.8864C0.526752 36.4366 0.647491 36.0424 0.891335 35.7038C1.13518 35.3653 1.47254 35.1013 1.90341 34.9119C2.33428 34.7225 2.82552 34.6278 3.37713 34.6278C3.94058 34.6278 4.42945 34.7237 4.84375 34.9155C5.26042 35.1049 5.58357 35.3712 5.81321 35.7145C6.04285 36.0578 6.16004 36.4555 6.16477 36.9077H4.48153ZM10.2308 36.5455V37.8239H6.78977V36.5455H10.2308ZM7.51065 35.2386H9.24716V40.2848C9.24716 40.3913 9.26373 40.4777 9.29688 40.544C9.33239 40.608 9.38329 40.6541 9.44957 40.6825C9.51586 40.7086 9.59517 40.7216 9.6875 40.7216C9.75379 40.7216 9.82363 40.7157 9.89702 40.7038C9.97277 40.6896 10.0296 40.6778 10.0675 40.6683L10.3303 41.9219C10.2474 41.9455 10.1302 41.9751 9.97869 42.0107C9.82955 42.0462 9.6508 42.0687 9.44247 42.0781C9.03527 42.0971 8.68608 42.0497 8.39489 41.9361C8.10606 41.8201 7.88471 41.6402 7.73082 41.3963C7.57931 41.1525 7.50592 40.8459 7.51065 40.4766V35.2386ZM11.1168 42V36.5455H12.8533V42H11.1168ZM11.9869 35.9098C11.743 35.9098 11.5335 35.8293 11.3583 35.6683C11.1831 35.505 11.0955 35.3085 11.0955 35.0788C11.0955 34.8516 11.1831 34.6574 11.3583 34.4964C11.5335 34.3331 11.743 34.2514 11.9869 34.2514C12.2331 34.2514 12.4426 34.3331 12.6154 34.4964C12.7906 34.6574 12.8782 34.8516 12.8782 35.0788C12.8782 35.3085 12.7906 35.505 12.6154 35.6683C12.4426 35.8293 12.2331 35.9098 11.9869 35.9098ZM16.5048 42.103C15.9295 42.103 15.4359 41.9846 15.024 41.7479C14.6144 41.5111 14.2995 41.1821 14.0794 40.7607C13.8592 40.3369 13.7491 39.8468 13.7491 39.2905C13.7491 38.7318 13.8592 38.2417 14.0794 37.8203C14.3019 37.3965 14.618 37.0663 15.0275 36.8295C15.4395 36.5928 15.9307 36.4744 16.5012 36.4744C17.0055 36.4744 17.4447 36.5656 17.8187 36.7479C18.1951 36.9302 18.4887 37.1882 18.6994 37.522C18.9125 37.8535 19.0249 38.2429 19.0368 38.6903H17.4139C17.3807 38.411 17.286 38.192 17.1298 38.0334C16.9759 37.8748 16.7747 37.7955 16.5261 37.7955C16.3249 37.7955 16.1485 37.8523 15.997 37.9659C15.8455 38.0772 15.7271 38.2429 15.6419 38.4631C15.559 38.6809 15.5176 38.9508 15.5176 39.2727C15.5176 39.5947 15.559 39.867 15.6419 40.0895C15.7271 40.3097 15.8455 40.4766 15.997 40.5902C16.1485 40.7015 16.3249 40.7571 16.5261 40.7571C16.6871 40.7571 16.8291 40.7228 16.9522 40.6541C17.0777 40.5855 17.1807 40.4848 17.2612 40.3523C17.3417 40.2173 17.3926 40.054 17.4139 39.8622H19.0368C19.0202 40.312 18.9077 40.705 18.6994 41.0412C18.4934 41.3774 18.2034 41.639 17.8294 41.826C17.4577 42.0107 17.0162 42.103 16.5048 42.103ZM21.4915 40.5689L21.4986 38.4986H21.7401L23.2741 36.5455H25.2415L22.9616 39.3438H22.5036L21.4915 40.5689ZM19.9254 42V34.7273H21.6619V42H19.9254ZM23.3132 42L21.8857 39.7344L23.0291 38.5021L25.3196 42H23.3132ZM28.188 42.103C27.6175 42.103 27.1251 41.9905 26.7108 41.7656C26.2988 41.5384 25.9816 41.2152 25.7591 40.7962C25.5389 40.3748 25.4288 39.8741 25.4288 39.294C25.4288 38.7306 25.5401 38.2382 25.7626 37.8168C25.9851 37.393 26.2988 37.0639 26.7037 36.8295C27.1085 36.5928 27.5855 36.4744 28.1348 36.4744C28.523 36.4744 28.8781 36.5348 29.2001 36.6555C29.5221 36.7763 29.8002 36.955 30.0346 37.1918C30.269 37.4285 30.4513 37.7209 30.5815 38.0689C30.7117 38.4145 30.7768 38.8111 30.7768 39.2585V39.6918H26.036V38.6832H29.161C29.1587 38.4986 29.1149 38.334 29.0297 38.1896C28.9444 38.0452 28.8272 37.9328 28.6781 37.8523C28.5313 37.7694 28.362 37.728 28.1703 37.728C27.9761 37.728 27.8021 37.7718 27.6483 37.8594C27.4944 37.9446 27.3725 38.0618 27.2825 38.2109C27.1925 38.3577 27.1452 38.5246 27.1404 38.7116V39.7379C27.1404 39.9605 27.1842 40.1558 27.2718 40.3239C27.3594 40.4896 27.4837 40.6186 27.6447 40.7109C27.8057 40.8033 27.9975 40.8494 28.22 40.8494C28.3739 40.8494 28.5136 40.8281 28.639 40.7855C28.7645 40.7429 28.8722 40.6802 28.9622 40.5973C29.0521 40.5144 29.1196 40.4126 29.1646 40.2919L30.7591 40.3381C30.6928 40.6955 30.5472 41.0069 30.3223 41.272C30.0997 41.5348 29.8074 41.7396 29.4451 41.8864C29.0829 42.0308 28.6639 42.103 28.188 42.103ZM31.6637 42V36.5455H33.3505V37.5398H33.4073C33.5067 37.1799 33.6689 36.9124 33.8938 36.7372C34.1187 36.5597 34.3803 36.4709 34.6786 36.4709C34.7591 36.4709 34.842 36.4768 34.9272 36.4886C35.0124 36.4981 35.0917 36.5135 35.1651 36.5348V38.044C35.0823 38.0156 34.9734 37.9931 34.8384 37.9766C34.7058 37.96 34.5875 37.9517 34.4833 37.9517C34.2773 37.9517 34.0915 37.9979 33.9258 38.0902C33.7624 38.1802 33.6334 38.3068 33.5387 38.4702C33.4464 38.6312 33.4002 38.8205 33.4002 39.0384V42H31.6637Z" fill="#647499"/>
<path d="M31 14C31 6.8203 25.1797 1 18 1C10.8203 1 5 6.8203 5 14C5 21.1797 10.8203 27 18 27M31 14C31 14 26 12 21 16.5C16 21 18 27 18 27M31 14C31 14 31 15 25.5 21C20 27 18 27 18 27" stroke="#647499" stroke-width="2"/>
<ellipse cx="14.5" cy="12" rx="1.5" ry="2" fill="#647499"/>
<ellipse cx="21.5" cy="12" rx="1.5" ry="2" fill="#647499"/>
<path d="M13 18C14 19 15.4872 19.5394 17.5 19.6674" stroke="#647499" stroke-width="2" stroke-linecap="round"/>
</svg>
