<svg width="22" height="36" viewBox="0 0 22 36" fill="none" xmlns="http://www.w3.org/2000/svg">
<path d="M20.5605 0V23H19.5605V0H20.5605Z" fill="#647499"/>
<path d="M17.4629 4.28516V8.94434H17.0059C16.735 7.86947 16.4346 7.09928 16.1045 6.63379C15.7744 6.15983 15.3216 5.7832 14.7461 5.50391C14.4245 5.35156 13.8616 5.27539 13.0576 5.27539H11.7754V18.5547C11.7754 19.4349 11.822 19.985 11.915 20.2051C12.0166 20.4251 12.207 20.6198 12.4863 20.7891C12.7741 20.9499 13.1634 21.0303 13.6543 21.0303H14.2256V21.5H5.21191V21.0303H5.7832C6.28253 21.0303 6.68457 20.9414 6.98926 20.7637C7.20929 20.6452 7.38281 20.4421 7.50977 20.1543C7.60284 19.9512 7.64941 19.418 7.64941 18.5547V5.27539H6.40527C5.24579 5.27539 4.40363 5.52083 3.87891 6.01172C3.14258 6.69727 2.67706 7.6748 2.48242 8.94434H2V4.28516H17.4629Z" fill="#647499"/>
<path d="M0.3125 28.2273V29.6548H2.52131V35.5H4.25426V29.6548H6.45952V28.2273H0.3125Z" fill="#647499"/>
<path fill-rule="evenodd" clip-rule="evenodd" d="M7.59943 35.2656C8.01373 35.4905 8.50616 35.603 9.0767 35.603C9.55256 35.603 9.97159 35.5308 10.3338 35.3864C10.696 35.2396 10.9884 35.0348 11.2109 34.772C11.4358 34.5069 11.5814 34.1955 11.6477 33.8381L10.0533 33.7919C10.0083 33.9126 9.94081 34.0144 9.85085 34.0973C9.76089 34.1802 9.65317 34.2429 9.5277 34.2855C9.40223 34.3281 9.26255 34.3494 9.10867 34.3494C8.88613 34.3494 8.69437 34.3033 8.53338 34.2109C8.3724 34.1186 8.24811 33.9896 8.16051 33.8239C8.07292 33.6558 8.02912 33.4605 8.02912 33.2379V33.1918H11.6655V32.7585C11.6655 32.3111 11.6004 31.9145 11.4702 31.5689C11.34 31.2209 11.1577 30.9285 10.9233 30.6918C10.6889 30.455 10.4107 30.2763 10.0888 30.1555C9.76681 30.0348 9.4117 29.9744 9.02344 29.9744C8.4742 29.9744 7.99716 30.0928 7.59233 30.3295C7.1875 30.5639 6.87382 30.893 6.65128 31.3168C6.42874 31.7382 6.31747 32.2306 6.31747 32.794C6.31747 33.3741 6.42756 33.8748 6.64773 34.2962C6.87027 34.7152 7.1875 35.0384 7.59943 35.2656ZM8.03017 32.1832C8.03879 32.0077 8.08578 31.8502 8.17116 31.7109C8.26113 31.5618 8.38305 31.4446 8.53693 31.3594C8.69081 31.2718 8.86482 31.228 9.05895 31.228C9.25071 31.228 9.41998 31.2694 9.56676 31.3523C9.71591 31.4328 9.8331 31.5452 9.91832 31.6896C10.0036 31.834 10.0473 31.9986 10.0497 32.1832H8.03017Z" fill="#647499"/>
<path d="M14.85 31.8423L13.9515 30.0455H12.1902L13.6958 32.7727L12.112 35.5H13.8734L14.85 33.6889L15.8514 35.5H17.5879L16.0076 32.7727L17.5311 30.0455H15.7804L14.85 31.8423Z" fill="#647499"/>
<path d="M21.4027 31.3239V30.0455H20.419V28.7386H18.6825V30.0455H17.9616V31.3239H18.6825V33.9766C18.6778 34.3459 18.7512 34.6525 18.9027 34.8963C19.0566 35.1402 19.2779 35.3201 19.5668 35.4361C19.858 35.5497 20.2071 35.5971 20.6143 35.5781C20.8227 35.5687 21.0014 35.5462 21.1506 35.5107C21.3021 35.4751 21.4193 35.4455 21.5021 35.4219L21.2393 34.1683C21.2015 34.1778 21.1446 34.1896 21.0689 34.2038C20.9955 34.2157 20.9257 34.2216 20.8594 34.2216C20.767 34.2216 20.6877 34.2086 20.6214 34.1825C20.5552 34.1541 20.5043 34.108 20.4688 34.044C20.4356 33.9777 20.419 33.8913 20.419 33.7848V31.3239H21.4027Z" fill="#647499"/>
</svg>
