<svg width="22" height="38" viewBox="0 0 22 38" fill="none" xmlns="http://www.w3.org/2000/svg">
<path fill-rule="evenodd" clip-rule="evenodd" d="M20.5605 0.5V0H19.5605V0.5V22.5V23H20.5605V22.5V0.5ZM17.4629 8.94434V4.28516H2V8.94434H2.48242C2.67708 7.6748 3.14258 6.69727 3.87891 6.01172C4.40365 5.52083 5.24577 5.27539 6.40527 5.27539H7.64941V18.5547C7.64941 19.418 7.60286 19.9512 7.50977 20.1543C7.38281 20.4421 7.20931 20.6452 6.98926 20.7637C6.68457 20.9414 6.28255 21.0303 5.7832 21.0303H5.21191V21.5H14.2256V21.0303H13.6543C13.1634 21.0303 12.7741 20.9499 12.4863 20.7891C12.207 20.6198 12.0166 20.4251 11.915 20.2051C11.8219 19.985 11.7754 19.4349 11.7754 18.5547V5.27539H13.0576C13.8617 5.27539 14.4245 5.35156 14.7461 5.50391C15.3216 5.7832 15.7744 6.15983 16.1045 6.63379C16.4346 7.09928 16.735 7.86947 17.0059 8.94434H17.4629Z" fill="#647499"/>
<path d="M0.3125 29.6548V28.2273H6.45952V29.6548H4.25426V35.5H2.52131V29.6548H0.3125ZM9.0767 35.603C8.50616 35.603 8.01373 35.4905 7.59943 35.2656C7.1875 35.0384 6.87027 34.7152 6.64773 34.2962C6.42756 33.8748 6.31747 33.3741 6.31747 32.794C6.31747 32.2306 6.42874 31.7382 6.65128 31.3168C6.87382 30.893 7.1875 30.5639 7.59233 30.3295C7.99716 30.0928 8.4742 29.9744 9.02344 29.9744C9.4117 29.9744 9.76681 30.0348 10.0888 30.1555C10.4107 30.2763 10.6889 30.455 10.9233 30.6918C11.1577 30.9285 11.34 31.2209 11.4702 31.5689C11.6004 31.9145 11.6655 32.3111 11.6655 32.7585V33.1918H6.92472V32.1832H10.0497C10.0473 31.9986 10.0036 31.834 9.91832 31.6896C9.8331 31.5452 9.71591 31.4328 9.56676 31.3523C9.41998 31.2694 9.25071 31.228 9.05895 31.228C8.86482 31.228 8.69081 31.2718 8.53693 31.3594C8.38305 31.4446 8.26113 31.5618 8.17116 31.7109C8.0812 31.8577 8.03385 32.0246 8.02912 32.2116V33.2379C8.02912 33.4605 8.07292 33.6558 8.16051 33.8239C8.24811 33.9896 8.3724 34.1186 8.53338 34.2109C8.69437 34.3033 8.88613 34.3494 9.10866 34.3494C9.26255 34.3494 9.40223 34.3281 9.5277 34.2855C9.65317 34.2429 9.76089 34.1802 9.85085 34.0973C9.94081 34.0144 10.0083 33.9126 10.0533 33.7919L11.6477 33.8381C11.5814 34.1955 11.4358 34.5069 11.2109 34.772C10.9884 35.0348 10.696 35.2396 10.3338 35.3864C9.97159 35.5308 9.55256 35.603 9.0767 35.603ZM13.9515 30.0455L14.85 31.8423L15.7804 30.0455H17.5311L16.0076 32.7727L17.5879 35.5H15.8514L14.85 33.6889L13.8734 35.5H12.112L13.6958 32.7727L12.1902 30.0455H13.9515ZM21.4027 30.0455V31.3239H17.9616V30.0455H21.4027ZM18.6825 28.7386H20.419V33.7848C20.419 33.8913 20.4356 33.9777 20.4688 34.044C20.5043 34.108 20.5552 34.1541 20.6214 34.1825C20.6877 34.2086 20.767 34.2216 20.8594 34.2216C20.9257 34.2216 20.9955 34.2157 21.0689 34.2038C21.1446 34.1896 21.2015 34.1778 21.2393 34.1683L21.5021 35.4219C21.4193 35.4455 21.3021 35.4751 21.1506 35.5107C21.0014 35.5462 20.8227 35.5687 20.6143 35.5781C20.2071 35.5971 19.858 35.5497 19.5668 35.4361C19.2779 35.3201 19.0566 35.1402 18.9027 34.8963C18.7512 34.6525 18.6778 34.3459 18.6825 33.9766V28.7386Z" fill="#647499"/>
</svg>
