<svg width="35" height="43" viewBox="0 0 35 43" fill="none" xmlns="http://www.w3.org/2000/svg">
<path d="M4.97958 32.8988H6.73384V37.5899C6.73384 38.132 6.60482 38.6043 6.34677 39.0068C6.08872 39.4069 5.72887 39.717 5.26722 39.9372C4.80558 40.155 4.26935 40.2639 3.65856 40.2639C3.04066 40.2639 2.50089 40.155 2.03924 39.9372C1.57759 39.717 1.21893 39.4069 0.963246 39.0068C0.707564 38.6043 0.579723 38.132 0.579723 37.5899V32.8988H2.33754V37.4372C2.33754 37.6881 2.39199 37.9119 2.50089 38.1084C2.61216 38.3049 2.76722 38.4587 2.96609 38.57C3.16495 38.6813 3.39577 38.7369 3.65856 38.7369C3.92134 38.7369 4.15098 38.6813 4.34748 38.57C4.54634 38.4587 4.70141 38.3049 4.81268 38.1084C4.92395 37.9119 4.97958 37.6881 4.97958 37.4372V32.8988ZM7.83558 42.217V34.717H9.55433V35.651H9.6076C9.67862 35.4853 9.77924 35.3255 9.90945 35.1716C10.042 35.0177 10.2101 34.8922 10.4137 34.7952C10.6197 34.6957 10.8659 34.646 11.1523 34.646C11.5311 34.646 11.8851 34.7454 12.2141 34.9443C12.5456 35.1432 12.8131 35.4497 13.0167 35.864C13.2203 36.2783 13.3221 36.8063 13.3221 37.4479C13.3221 38.0658 13.2238 38.583 13.0273 38.9997C12.8332 39.4164 12.5704 39.7289 12.239 39.9372C11.9099 40.1455 11.5442 40.2497 11.1417 40.2497C10.8671 40.2497 10.6291 40.2047 10.4279 40.1148C10.2267 40.0248 10.0574 39.9064 9.9201 39.7596C9.78516 39.6129 9.68099 39.4554 9.6076 39.2873H9.57209V42.217H7.83558ZM9.53658 37.4443C9.53658 37.7379 9.57564 37.9935 9.65376 38.2114C9.73426 38.4292 9.84908 38.5984 9.99822 38.7192C10.1497 38.8375 10.3308 38.8967 10.5415 38.8967C10.7546 38.8967 10.9357 38.8375 11.0849 38.7192C11.234 38.5984 11.3465 38.4292 11.4222 38.2114C11.5004 37.9935 11.5394 37.7379 11.5394 37.4443C11.5394 37.1507 11.5004 36.8962 11.4222 36.6808C11.3465 36.4654 11.234 36.2985 11.0849 36.1801C10.9381 36.0617 10.757 36.0025 10.5415 36.0025C10.3285 36.0025 10.1474 36.0605 9.99822 36.1765C9.84908 36.2926 9.73426 36.4583 9.65376 36.6737C9.57564 36.8891 9.53658 37.146 9.53658 37.4443ZM15.9686 32.8988V40.1716H14.2321V32.8988H15.9686ZM19.62 40.2746C19.0471 40.2746 18.5547 40.1574 18.1428 39.923C17.7332 39.6863 17.4171 39.3572 17.1946 38.9358C16.9744 38.512 16.8643 38.0208 16.8643 37.4621C16.8643 36.901 16.9744 36.4097 17.1946 35.9883C17.4171 35.5646 17.7332 35.2355 18.1428 35.0011C18.5547 34.7644 19.0471 34.646 19.62 34.646C20.1929 34.646 20.6842 34.7644 21.0938 35.0011C21.5057 35.2355 21.8217 35.5646 22.0419 35.9883C22.2644 36.4097 22.3757 36.901 22.3757 37.4621C22.3757 38.0208 22.2644 38.512 22.0419 38.9358C21.8217 39.3572 21.5057 39.6863 21.0938 39.923C20.6842 40.1574 20.1929 40.2746 19.62 40.2746ZM19.6307 38.9642C19.839 38.9642 20.0154 38.9003 20.1598 38.7724C20.3042 38.6446 20.4143 38.467 20.4901 38.2398C20.5682 38.0125 20.6072 37.7497 20.6072 37.4514C20.6072 37.1484 20.5682 36.8832 20.4901 36.656C20.4143 36.4287 20.3042 36.2511 20.1598 36.1233C20.0154 35.9954 19.839 35.9315 19.6307 35.9315C19.4152 35.9315 19.233 35.9954 19.0838 36.1233C18.937 36.2511 18.8246 36.4287 18.7464 36.656C18.6707 36.8832 18.6328 37.1484 18.6328 37.4514C18.6328 37.7497 18.6707 38.0125 18.7464 38.2398C18.8246 38.467 18.937 38.6446 19.0838 38.7724C19.233 38.9003 19.4152 38.9642 19.6307 38.9642ZM24.8029 40.2639C24.4549 40.2639 24.146 40.2059 23.8761 40.0899C23.6085 39.9715 23.3967 39.794 23.2404 39.5572C23.0865 39.3181 23.0096 39.0186 23.0096 38.6588C23.0096 38.3558 23.0629 38.1001 23.1694 37.8917C23.2759 37.6834 23.4227 37.5141 23.6097 37.3839C23.7968 37.2537 24.0122 37.1555 24.256 37.0892C24.4999 37.0205 24.7603 36.9744 25.0373 36.9507C25.3474 36.9223 25.5972 36.8927 25.7866 36.8619C25.976 36.8288 26.1133 36.7826 26.1985 36.7234C26.2861 36.6619 26.3299 36.5755 26.3299 36.4642V36.4464C26.3299 36.2641 26.2672 36.1233 26.1417 36.0238C26.0162 35.9244 25.8469 35.8747 25.6339 35.8747C25.4042 35.8747 25.2196 35.9244 25.0799 36.0238C24.9402 36.1233 24.8514 36.2606 24.8136 36.4358L23.212 36.379C23.2594 36.0475 23.3813 35.7516 23.5778 35.4912C23.7766 35.2284 24.0489 35.0224 24.3945 34.8733C24.7425 34.7218 25.1604 34.646 25.6481 34.646C25.9961 34.646 26.3169 34.6874 26.6104 34.7703C26.904 34.8508 27.1597 34.9692 27.3775 35.1254C27.5953 35.2793 27.7634 35.4687 27.8817 35.6936C28.0025 35.9185 28.0629 36.1754 28.0629 36.4642V40.1716H26.4293V39.4116H26.3867C26.2897 39.5963 26.1654 39.7525 26.0138 39.8804C25.8647 40.0082 25.6883 40.1041 25.4847 40.168C25.2835 40.2319 25.0562 40.2639 24.8029 40.2639ZM25.3391 39.1275C25.5262 39.1275 25.6942 39.0897 25.8434 39.0139C25.9949 38.9381 26.1156 38.834 26.2056 38.7014C26.2956 38.5665 26.3406 38.4102 26.3406 38.2327V37.7142C26.2908 37.7402 26.2305 37.7639 26.1594 37.7852C26.0908 37.8065 26.015 37.8266 25.9322 37.8456C25.8493 37.8645 25.7641 37.8811 25.6765 37.8953C25.5889 37.9095 25.5049 37.9225 25.4244 37.9344C25.261 37.9604 25.1213 38.0006 25.0053 38.0551C24.8917 38.1096 24.8041 38.1806 24.7425 38.2682C24.6834 38.3534 24.6538 38.4552 24.6538 38.5736C24.6538 38.7535 24.7177 38.8908 24.8455 38.9855C24.9757 39.0802 25.1403 39.1275 25.3391 39.1275ZM31.1168 40.2497C30.7144 40.2497 30.3486 40.1455 30.0195 39.9372C29.6905 39.7289 29.4277 39.4164 29.2312 38.9997C29.0347 38.583 28.9364 38.0658 28.9364 37.4479C28.9364 36.8063 29.0382 36.2783 29.2418 35.864C29.4454 35.4497 29.7118 35.1432 30.0408 34.9443C30.3723 34.7454 30.7286 34.646 31.1097 34.646C31.3962 34.646 31.6412 34.6957 31.8448 34.7952C32.0484 34.8922 32.2165 35.0177 32.3491 35.1716C32.4817 35.3255 32.5823 35.4853 32.6509 35.651H32.6864V32.8988H34.4229V40.1716H32.7042V39.2873H32.6509C32.5775 39.4554 32.4734 39.6129 32.3384 39.7596C32.2035 39.9064 32.0342 40.0248 31.8306 40.1148C31.6294 40.2047 31.3915 40.2497 31.1168 40.2497ZM31.7205 38.8967C31.9312 38.8967 32.1112 38.8375 32.2603 38.7192C32.4094 38.5984 32.5243 38.4292 32.6048 38.2114C32.6853 37.9935 32.7255 37.7379 32.7255 37.4443C32.7255 37.146 32.6853 36.8891 32.6048 36.6737C32.5266 36.4583 32.4118 36.2926 32.2603 36.1765C32.1112 36.0605 31.9312 36.0025 31.7205 36.0025C31.5051 36.0025 31.3228 36.0617 31.1737 36.1801C31.0245 36.2985 30.9109 36.4654 30.8327 36.6808C30.757 36.8962 30.7191 37.1507 30.7191 37.4443C30.7191 37.7379 30.7582 37.9935 30.8363 38.2114C30.9144 38.4292 31.0269 38.5984 31.1737 38.7192C31.3228 38.8375 31.5051 38.8967 31.7205 38.8967Z" fill="#647499"/>
<path d="M5 1H29C30.6569 1 32 2.34315 32 4V22C32 23.6569 30.6569 25 29 25H5C3.34315 25 2 23.6569 2 22V4C2 2.34315 3.34315 1 5 1Z" stroke="#647499" stroke-width="2"/>
<circle cx="13" cy="8" r="2" stroke="#647499" stroke-width="4"/>
<path d="M2 21.5C3.49734 20.1134 6.99997 15.5 10.5 15.5C14 15.5 15 19 17.5 19C20 19 24 11 27.5 11C31 11 31.1034 12.3019 32 13" stroke="#647499" stroke-width="2"/>
</svg>
