<svg width="18" height="16" viewBox="0 0 18 16" fill="none" xmlns="http://www.w3.org/2000/svg">
<path d="M0.0399205 4.9557C0.441434 1.31359 5.28694 -2.77569 9.02312 2.56861C12.7593 -2.77569 17.5586 1.31359 17.9601 4.9557C18.3947 8.89823 15.2022 10.5306 12.1866 12.9563L12.1864 12.9565C11.9396 13.155 11.6908 13.3551 11.4416 13.5579C11.3059 13.6684 11.1546 13.7819 10.9945 13.9021C10.3288 14.4017 9.51058 15.0157 9.02318 16C8.53578 15.0157 7.67123 14.4017 7.0055 13.9021C6.84541 13.7819 6.69414 13.6684 6.55841 13.5579C6.30922 13.3551 6.06044 13.155 5.81365 12.9565L5.81344 12.9563C2.79776 10.5306 -0.394712 8.89823 0.0399205 4.9557Z" fill="#647499"/>
</svg>
