<svg width="18" height="17" viewBox="0 0 18 17" fill="none" xmlns="http://www.w3.org/2000/svg">
<path d="M8.66344 0.523983C8.82088 0.278878 9.17912 0.278878 9.33656 0.523983L11.984 4.6458C12.0382 4.73013 12.122 4.79106 12.219 4.81651L16.9572 6.06068C17.2389 6.13467 17.3496 6.47538 17.1652 6.70085L14.0632 10.4924C13.9997 10.57 13.9677 10.6686 13.9735 10.7687L14.2544 15.6594C14.2711 15.9502 13.9812 16.1608 13.7098 16.0551L9.14522 14.2766C9.05183 14.2402 8.94817 14.2402 8.85478 14.2766L4.2902 16.0551C4.01877 16.1608 3.72894 15.9502 3.74564 15.6594L4.02655 10.7687C4.0323 10.6686 4.00027 10.57 3.9368 10.4924L0.834828 6.70085C0.650368 6.47538 0.761073 6.13467 1.04283 6.06068L5.78102 4.81651C5.87796 4.79106 5.96182 4.73013 6.01599 4.6458L8.66344 0.523983Z" fill="#647499"/>
</svg>
